<?xml version="1.0" standalone="no"?>
  <!DOCTYPE svg PUBLIC "-//W3C//DTD SVG 1.1//EN" "http://www.w3.org/Graphics/SVG/1.1/DTD/svg11.dtd" >
  <svg>
  <metadata>
  Created by font-carrier
  </metadata>
  <defs>
  <font id="CeremoniousOne" horiz-adv-x="1627" vert-adv-y="1627" >
    <font-face
      
      font-family="Ceremonious One"
      
      font-weight="400"
      
      font-stretch="normal"
      
      units-per-em="1000"
      
      ascent="764"
      
      descent="-302"
      
    />
      <missing-glyph />

      

      
      <glyph glyph-name="uni21" unicode="&#x21;" d="M463 498Q463 480 444 461Q324 337 94 118Q67 92 63 95Q60 97 60 100Q60 106 78 126Q173 235 365 451Q383 471 402 492Q427 516 443 516Q463 516 463 498M39 23Q39-4 11-4Q-18-4-18 23Q-18 34-9 43Q0 52 11 52Q22 52 30.50 43Q39 34 39 23Z"  horiz-adv-x="264" vert-adv-y="1000"  />

      
      <glyph glyph-name="uni22" unicode="&#x22;" d="M587 512Q587 498 548 463Q496 417 304 255Q298 250 294 252Q290 254 295 260Q387 357 505 476Q552 524 572 524Q587 524 587 512M466 511Q466 497 427 463Q375 417 183 255Q177 250 173 252Q170 253 173 260Q261 353 383 476Q430 524 450 524Q466 524 466 511Z"  horiz-adv-x="426" vert-adv-y="1000"  />

      
      <glyph glyph-name="uni23" unicode="&#x23;" d="M508 398L381 258L457 258L431 233L358 233L290 155L383 155L358 131L267 131L153 1L113-8L235 131L136 131L13-8L-28-16L105 131L13 131L39 155L127 155L196 233L98 233L126 258L218 258L329 382L368 390L250 258L348 258L468 390L508 398M327 233L228 233L158 155L258 155L327 233Z"  horiz-adv-x="436" vert-adv-y="1000"  />

      
      <glyph glyph-name="uni24" unicode="&#x24;" d="M357 393Q360 391 359 387Q358 383 356 382Q319 338 300 316Q305 309 307 301Q310 289 305 273Q297 247 275 229.50Q253 212 231 212Q220 212 213 214L159 150Q161 123 153 98Q142 60 103.50 26.50Q65-7 21-14L-25-68Q-34-75-37-72Q-41-69-34-62Q-24-49 6-14Q-18-14-34-8L-88-70Q-96-79-99-74Q-102-72-96-63L-44-2Q-63 23-58 54Q-49 86-21.50 106.50Q6 127 33 127Q51 127 58 119L111 179Q108 206 114 229Q125 269 161 299Q197 329 238 333L286 388Q293 398 298 393Q301 392 297 383Q285 369 253 333Q275 332 291 323Q322 359 344 387Q352 395 357 393M294 276Q299 294 292 306L232 236Q241 231 257 235Q285 242 294 276M227 318Q178 307 158 253Q155 238 155 234L227 318M283 314Q269 321 255 321Q246 321 243 320L154 217Q154 219 157 165L204 221Q202 223 200 231Q199 237 201 241Q203 245 210 244Q213 244 219 240L283 314M116 117L113 165L65 110Q68 100 67 93Q64 83 57 83Q51 85 48 89L-27 2Q-13-4 5-4Q9-4 16-3L116 117M116 99L32-2Q57 4 81 27.50Q105 51 113 83Q116 91 116 99M39 97Q27 109 5 106Q-7 103-23 89Q-39 75-45 56Q-53 29-36 8L39 97Z"  horiz-adv-x="258" vert-adv-y="1000"  />

      
      <glyph glyph-name="uni25" unicode="&#x25;" d="M407 176Q407 138 348 78Q306 34 266 11Q226-12 207-7Q185-1 185 24Q185 66 237 119Q271 153 312 175Q353 197 381 197Q407 197 407 176M476 366Q483 359 473 353L-51-42Q-64-50-75-47Q-79-45-79-42Q-79-36-64-24Q-58-20 393 310Q358 294 323 294Q287 294 275 322Q260 285 221 245Q179 202 138.50 178.50Q98 155 79 160Q57 166 57 191Q57 233 109 286Q143 320 184.50 342Q226 364 253 364Q281 364 279 340Q292 306 324 306Q358 306 402 328Q430 345 459 361Q473 369 476 366M260 355Q225 355 134 261Q76 201 76 179Q76 168 88 168Q123 168 214 262Q269 318 269 347Q269 355 260 355M387 189Q353 189 262 94Q204 33 204 13Q204 2 215 2Q251 2 342 95Q396 150 396 180Q396 189 387 189Z"  horiz-adv-x="452" vert-adv-y="1000"  />

      
      <glyph glyph-name="uni26" unicode="&#x26;" d="M628 518Q628 489 592 453Q616 421 616 379Q616 334 588 283Q523 168 368 75Q379 23 424 19Q473 15 531 55Q539 63 542 58Q545 54 536 47Q481-8 419-12Q343-17 322 50Q208-8 118-8Q77-8 51 8Q18 28 20 66Q24 139 128 213Q127 222 127 231Q127 274 158 325Q209 407 305 457Q397 504 485 501Q488 501 517 498Q573 543 602 543Q628 543 628 518M600 531Q573 531 534 492Q563 485 583 463Q613 497 613 517Q613 531 600 531M573 453Q556 475 525 482Q495 449 481 432Q449 392 428 353Q500 387 573 453M581 441Q514 376 420 333Q395 279 378 206Q362 139 365 93Q499 176 565 288Q596 341 596 386Q596 418 581 441M503 486Q491 488 483 488Q399 489 318 445Q229 397 180 313Q153 267 153 228Q236 280 383 337Q433 424 503 486M375 317Q244 268 159 194Q176 156 226 156Q235 156 255 158Q262 160 263 158Q266 155 256 151Q241 144 222 144Q170 143 143 179Q80 118 80 67Q80 42 96.50 27.50Q113 13 138 13Q215 13 318 67Q309 116 328 190Q344 253 375 317Z"  horiz-adv-x="588" vert-adv-y="1000"  />

      
      <glyph glyph-name="uni27" unicode="&#x27;" d="M466 511Q466 497 427 463Q375 417 183 255Q177 250 173 252Q170 253 173 260Q261 353 383 476Q430 524 450 524Q466 524 466 511Z"  horiz-adv-x="261" vert-adv-y="1000"  />

      
      <glyph glyph-name="uni28" unicode="&#x28;" d="M688 652Q688 650 681 643Q642 625 517 546Q374 446 262 311Q128 150 103 9Q98-17 98-41Q98-45 112-99Q125-149 122-151Q115-154 108-144Q67-91 67 13Q67 150 192 304Q295 430 472 544Q608 631 675 654Q687 658 688 652Z"  horiz-adv-x="324" vert-adv-y="1000"  />

      
      <glyph glyph-name="uni29" unicode="&#x29;" d="M337 219Q235 84 39-41Q-96-127-162-150Q-173-154-177-148Q-179-144-168-139Q-89-102-3-42Q136 56 250 192Q385 355 409 494Q413 515 413 537Q413 593 392 638Q385 652 390 655Q396 658 403 648Q420 624 432 580Q445 532 445 485Q445 362 337 219Z"  horiz-adv-x="324" vert-adv-y="1000"  />

      
      <glyph glyph-name="uni2a" unicode="&#x2a;" d="M484 449Q486 444 486 440Q486 425 448 418Q421 413 369 404Q391 390 436 359Q462 340 462 329Q462 322 455.50 316Q449 310 442 310Q430 310 411 333Q394 353 360 393L353 314Q349 271 328 275Q313 278 313 292Q313 302 320 321Q329 346 347 397Q325 387 275 362Q255 352 245 352Q226 352 226 374Q226 389 263 396Q288 401 343 410L276 455Q250 473 250 484Q250 491 256.50 497.50Q263 504 269 504Q280 504 298.50 481.50Q317 459 352 420Q354 446 358 500Q360 543 384 538Q399 535 399 521Q399 513 392 493L365 418Q388 429 437 452Q458 463 467 463Q479 463 484 449Z"  horiz-adv-x="347" vert-adv-y="1000"  />

      
      <glyph glyph-name="uni2b" unicode="&#x2b;" d="M310 161L293 138L162 138L53 4L23 4L132 138L8 138L28 161L149 161L258 294L288 294L180 161L310 161Z"  horiz-adv-x="350" vert-adv-y="1000"  />

      
      <glyph glyph-name="uni2c" unicode="&#x2c;" d="M4-37Q-25-61-64-75Q-71-77-73-73Q-73-68-68-66Q-9-43 5-6Q-3-3-6 7Q-9 17-6 26Q4 53 29 47Q46 43 46 22Q46-2 4-37Z"  horiz-adv-x="162" vert-adv-y="1000"  />

      
      <glyph glyph-name="uni2d" unicode="&#x2d;" d="M188 207Q188 199 178 197Q161 194 119 184Q83 173 62 157Q57 153 55 157Q51 161 56 164Q70 182 108.50 201Q147 220 170 220Q177 220 182 218Q191 216 188 207M175 166Q175 161 170 160Q132 150 97 133Q75 122 49 103Q37 94 32 106Q28 112 39 123Q53 141 96 155Q145 171 171 170Q175 170 175 166Z"  horiz-adv-x="219" vert-adv-y="1000"  />

      
      <glyph glyph-name="uni2e" unicode="&#x2e;" d="M30 20Q30-6 4-6Q-23-6-23 20Q-23 48 4 48Q30 48 30 20Z"  horiz-adv-x="148" vert-adv-y="1000"  />

      
      <glyph glyph-name="uni2f" unicode="&#x2f;" d="M522 567Q527 564 518 549L-77-96Q-88-108-96-103Q-102-97-93-87Q50 70 501 558Q514 572 522 567Z"  horiz-adv-x="296" vert-adv-y="1000"  />

      
      <glyph glyph-name="uni30" unicode="&#x30;" d="M285 267Q285 215 195 123Q65-8-1-8Q-44-8-44 38Q-44 101 34 180Q84 231 147 264Q207 296 248 296Q285 296 285 267M257 282Q206 282 71 142Q-15 53-15 21Q-15 5 1 5Q43 5 184 148Q270 236 270 271Q270 282 257 282Z"  horiz-adv-x="255" vert-adv-y="1000"  />

      
      <glyph glyph-name="uni31" unicode="&#x31;" d="M310 304Q245 248 136 143Q55 55 17 7Q-6-22-10-20Q-15-22-17-8Q-19 5-14 19Q3 66 58 122Q107 171 176 227Q118 213 18 147Q10 139 8 148Q6 154 15 160Q130 239 253 290Q268 297 293 305Q302 305 310 304Z"  horiz-adv-x="226" vert-adv-y="1000"  />

      
      <glyph glyph-name="uni32" unicode="&#x32;" d="M234 299Q266 293 266 256Q266 215 232.50 184Q199 153 142 129Q90 110 39 90Q16 81-35 55Q-18 59 5 59Q23 59 59.50 49Q96 39 102 39Q125 37 174 84Q183 92 187 88Q194 83 186 75Q99-10 73-8Q60-7 21 4Q-18 15-47 17Q-78 19-112-11Q-118-17-123-13Q-132-9-117 5Q-69 52 29.50 104Q128 156 186 206Q234 248 234 269Q234 285 214 285Q176 285 132 242Q112 223 103 203Q77 161 66 163Q59 165 59 175Q59 185 65 195Q83 222 121 254Q148 277 180.50 290Q213 303 234 299Z"  horiz-adv-x="256" vert-adv-y="1000"  />

      
      <glyph glyph-name="uni33" unicode="&#x33;" d="M253 248Q253 204 221 173Q165 119 67 105Q79 88 82 70Q83 63 83 54Q83-3 33-54Q-6-93-79-118Q-148-142-200-138Q-266-132-266-91Q-266-79-255-59.50Q-244-40-233-44Q-230-46-238-58Q-249-74-248-90Q-245-121-196-122Q-155-122-105.50-97.50Q-56-73-17-33Q46 31 54 86Q55 95 54 101Q32 93 16 93Q-1 93-1 101Q-1 111 22 115Q38 118 55 114Q105 128 184 203Q223 240 223 265Q223 285 200 285Q175 285 148 264Q146 262 115 225Q88 192 76 192Q74 192 72 193Q63 199 78 221Q91 240 120 263Q165 299 206 299Q253 299 253 248Z"  horiz-adv-x="238" vert-adv-y="1000"  />

      
      <glyph glyph-name="uni34" unicode="&#x34;" d="M362 265Q361 264 360 264Q358 264 358 266Q346 278 330 278Q282 278 175.50 207Q69 136-20 69Q2 74 72 74Q141 140 198 181Q278 239 313 253Q320 258 322 251Q323 247 318 243Q259 199 131 76Q174 79 198 98Q207 96 207 92Q207 90 206 89Q168 53 107 53Q83 33 44-17Q2-70-22-113Q-40-145-50-143Q-57-142-57-129Q-57-112-47-89Q-16-14 52 54Q-21 60-59 48Q-63 47-66 51Q-68 55-65 60Q12 115 163 223Q273 300 328 298Q356 297 361 273Q361 263 362 265Z"  horiz-adv-x="293" vert-adv-y="1000"  />

      
      <glyph glyph-name="uni35" unicode="&#x35;" d="M314 298Q315 298 310 288Q302 280 283 262Q261 243 243 243Q237 243 222.50 244.50Q208 246 198 246Q169 246 157 244Q124 224 61 163Q50 152 38 145Q55 140 65 130Q90 109 93 77Q99 9 42-48Q2-88-57-114Q-123-142-183-138Q-252-134-252-91Q-252-73-242-58Q-236-49-227-45Q-220-42-218-46Q-216-51-222-59Q-231-69-232-72Q-234-79-233-89Q-231-122-181-122Q-95-122-4-24Q67 53 56 102Q50 127 28 138Q10 126-4 126Q-10 126-11 130Q-15 143 23 149Q36 159 98 219Q153 273 182 289Q199 288 229 288Q273 288 282 289Q288 290 301 294Q311 300 314 298Z"  horiz-adv-x="192" vert-adv-y="1000"  />

      
      <glyph glyph-name="uni36" unicode="&#x36;" d="M550 353Q547 342 540 339Q533 338 533 349Q528 375 518 387Q497 412 455 412Q343 412 138 223Q106 194 68 153L69 152Q182 243 225 233Q254 226 244 192Q233 137 168 77Q127 40 75 14Q19-14-14-8Q-44-3-44 30Q-44 82 34 172Q96 245 156 289Q340 425 454 425Q516 425 542 390Q555 372 550 353M210 220Q189 220 140.50 189Q92 158 48 117Q-17 56-22 27Q-25 6-1 6Q25 6 136 112Q221 193 221 210Q221 220 210 220Z"  horiz-adv-x="264" vert-adv-y="1000"  />

      
      <glyph glyph-name="uni37" unicode="&#x37;" d="M358 283Q364 272 328 262Q293 248 177.50 169.50Q62 91-20-3Q-59-47-79-113Q-88-143-96-143Q-102-142-103-125Q-103-107-98-88Q-75-4-8.50 68.50Q58 141 152 193Q193 216 273 254Q266 253 248 253Q236 253 206.50 255.50Q177 258 168 258Q144 259 131 253Q106 242 62 201Q58 197 53 200Q51 203 54 208Q108 270 137 287Q159 300 187 297Q192 296 300 276Q320 272 328 274Q332 277 343 283Q355 288 358 283Z"  horiz-adv-x="260" vert-adv-y="1000"  />

      
      <glyph glyph-name="uni38" unicode="&#x38;" d="M455 414Q441 359 380 312Q319 265 178 197Q151 87 85 32Q36-9-18-9Q-58-9-56 33Q-53 104 127 197Q158 289 209 331Q247 362 294 360Q326 358 340 343Q349 334 342 327Q335 322 328 329Q311 346 293 346Q222 346 183 218Q267 254 361 327Q428 379 438 416Q441 427 441 438Q441 483 396 483Q380 483 366 474Q358 471 357 472Q352 474 359 483Q377 501 400 501Q458 501 458 440Q458 427 455 414M121 173Q66 147 20 110Q-35 67-38 35Q-40 10-16 10Q22 10 65 65Q102 113 121 173Z"  horiz-adv-x="245" vert-adv-y="1000"  />

      
      <glyph glyph-name="uni39" unicode="&#x39;" d="M102 4Q-58-138-193-138Q-252-138-252-90Q-252-72-237-53Q-228-44-223-48Q-218-51-225-62Q-236-79-235-91Q-232-123-192-123Q-110-123 23-10Q102 57 174 138L173 139Q121 95 73 71Q30 49 13 55Q-13 64-6 98Q6 153 71 213Q110 249 161 273Q212 297 244 297Q283 297 283 258Q283 210 212 121Q160 55 102 4M262 263Q265 279 251 282Q231 286 196 260Q167 239 102 178Q17 98 17 79Q17 70 27 70Q48 70 99 102.50Q150 135 189 172Q256 235 262 263Z"  horiz-adv-x="280" vert-adv-y="1000"  />

      
      <glyph glyph-name="uni3a" unicode="&#x3a;" d="M161 193Q161 167 134 167Q108 167 108 193Q108 220 134 220Q161 220 161 193M43 20Q43-6 16-6Q-11-6-11 20Q-11 48 16 48Q27 48 35 39.50Q43 31 43 20Z"  horiz-adv-x="181" vert-adv-y="1000"  />

      
      <glyph glyph-name="uni3b" unicode="&#x3b;" d="M161 193Q161 167 134 167Q108 167 108 193Q108 220 134 220Q161 220 161 193M-2-37Q-31-61-70-75Q-77-77-79-73Q-79-68-74-66Q-15-43-1-6Q-9-3-12 7Q-15 17-12 26Q-2 53 23 47Q40 43 40 22Q40-2-2-37Z"  horiz-adv-x="181" vert-adv-y="1000"  />

      
      <glyph glyph-name="uni3c" unicode="&#x3c;" d="M416 251L73 144L245 46L228 24L28 142L38 157L412 275L416 251Z"  horiz-adv-x="408" vert-adv-y="1000"  />

      
      <glyph glyph-name="uni3d" unicode="&#x3d;" d="M368 211L350 187L65 187L85 211L368 211M302 129L284 105L-1 105L19 129L302 129Z"  horiz-adv-x="384" vert-adv-y="1000"  />

      
      <glyph glyph-name="uni3e" unicode="&#x3e;" d="M344 155L334 140L-40 22L-44 46L299 153L127 251L143 273L344 155Z"  horiz-adv-x="408" vert-adv-y="1000"  />

      
      <glyph glyph-name="uni3f" unicode="&#x3f;" d="M453 363Q416 318 343 281Q250 234 208 201Q145 151 110 99Q105 92 100 94Q95 95 98 103Q125 164 224 244Q237 255 318 309Q378 349 403 379Q449 432 449 468Q449 492 424 496Q385 503 339 463Q321 447 302 413Q277 377 262 380Q248 385 267 413Q289 446 329 476Q383 517 431 511Q487 504 487 447Q487 403 453 363M88 23Q86-4 58-4Q29-4 32 23Q33 34 42.50 43Q52 52 63 52Q90 52 88 23Z"  horiz-adv-x="341" vert-adv-y="1000"  />

      
      <glyph glyph-name="uni40" unicode="&#x40;" d="M738 236Q686 146 554 67Q493 30 434 30Q379 30 379 67Q379 87 398 117Q299 32 255 32Q221 32 221 65Q221 125 298 204Q349 256 419 295Q489 334 531 334Q564 334 564 311Q564 290 533 261Q596 313 617 320Q634 326 656 324Q525 208 453 121Q413 73 413 57Q413 41 437 41Q486 41 551 81Q658 146 718 250Q755 314 755 364Q755 470 603 470Q517 470 424 429Q331 388 250 316Q183 257 141 185Q93 105 96 39Q98-25 142-59Q186-93 259-93Q379-93 513-23Q521-19 523-23Q526-29 516-35Q382-113 250-113Q59-113 55 31Q53 98 103.50 183Q154 268 237 336Q417 483 608 483Q688 483 732 449Q776 415 776 356Q776 301 738 236M538 320Q491 320 344 180Q253 93 253 57Q253 50 258 47Q273 40 330 81Q387 122 449 186Q481 219 513 251Q550 293 550 309Q550 320 538 320Z"  horiz-adv-x="740" vert-adv-y="1000"  />

      
      <glyph glyph-name="uni41" unicode="&#x41;" d="M1361 570Q1358 564 1350 567Q1327 575 1305 573Q1238 566 1101 448Q993 357 902 253Q814 153 753 52Q738 26 721.50 0Q705-26 695-23Q684-20 684-5Q684 12 698 41Q719 85 778 167Q797 206 797 240Q797 272 780 299Q764 284 733 254Q395-83 146-83Q-7-83-7 41Q-7 122 61 207Q118 279 199 328Q311 397 469 414Q438 436 443 478Q453 570 572 625Q678 674 817 674Q946 674 1066 652Q1128 641 1252 608Q1276 602 1349 578Q1361 574 1361 570M1268 574Q1216 570 1135 537Q968 470 790 308Q811 275 811 239Q811 221 806 203Q843 251 889 298Q1119 533 1268 574M1292 587Q1280 590 1254 595Q1132 618 1077 625Q964 639 816 639Q682 639 577 595Q464 547 456 473Q452 434 485 416Q503 418 513 418Q686 421 768 336Q947 482 1117 545Q1221 583 1292 587M758 327Q677 405 514 399Q453 397 368 368Q283 339 221 300Q10 167 10 39Q10-71 141-71Q246-71 379 14Q495 88 678 258Q719 296 758 327Z"  horiz-adv-x="889" vert-adv-y="1000"  />

      
      <glyph glyph-name="uni42" unicode="&#x42;" d="M1038 647Q1038 644 1029 644Q1015 642 1005 639Q951 621 909 586Q948 538 948 482Q948 439 922 403Q892 361 827 331Q771 305 717 298Q791 254 791 173Q791 132 768 94Q728 28 630-11Q541-47 438-48Q317-50 183-20Q164-15 128-8Q152-91 218-134Q281-175 372-171Q438-168 486-134Q501-123 503-125Q510-131 494.50-144.50Q479-158 442-171Q402-184 369-185Q270-188 202-141.50Q134-95 112-11Q63-22 23-23Q5-23-6.50-19Q-18-15-17-7Q-15 18 43 23Q69 25 105 19Q99 56 101 95Q105 196 148 297Q194 405 272 482Q357 566 477 613Q597 660 718 657Q835 654 898 598Q951 636 998 648Q1013 652 1025 652Q1039 652 1038 647M898 577Q836 528 767 449Q755 436 662 323Q676 326 703 308Q813 318 882 416Q917 465 917 513Q917 550 898 577M886 590Q823 641 718 642Q489 645 303 463Q216 378 167 278Q121 183 118 95Q116 51 123 16Q150 9 184 16Q278 35 370 105Q445 163 570 298Q775 520 886 590M718 108Q747 152 747 200Q747 273 689 297Q678 295 665.50 300.50Q653 306 653 313Q645 302 638 294Q398 24 159 0Q169-2 187-6Q314-33 443-32Q526-31 602 7.50Q678 46 718 108Z"  horiz-adv-x="843" vert-adv-y="1000"  />

      
      <glyph glyph-name="uni43" unicode="&#x43;" d="M1114 552Q1114 525 1078 525Q1057 525 934 553Q862 569 811 577Q656 516 513 393Q407 302 337 202Q263 97 263 32Q263-3 287.50-24.50Q312-46 360-45Q456-42 566 28Q613 58 696 124Q710 135 713 132Q719 126 704 113Q622 46 573 15Q457-58 358-61Q307-63 270-41.50Q233-20 223 22Q213 18 196 17Q116 14 72 62.50Q28 111 28 199Q28 291 84 381Q137 467 220 523Q375 627 593 627Q690 627 805 599Q895 627 983 627Q1039 627 1076.50 606.50Q1114 586 1114 552M1103 553Q1103 582 1068.50 598Q1034 614 983 614Q918 614 846 589Q878 580 938 564Q1041 536 1076 536Q1103 536 1103 553M759 584Q684 593 593 593Q383 593 238 501Q151 446 98.50 365Q46 284 45 201Q44 119 84.50 74.50Q125 30 197 30Q204 30 222 34Q216 117 287 224Q347 315 438 393Q589 521 759 584Z"  horiz-adv-x="697" vert-adv-y="1000"  />

      
      <glyph glyph-name="uni44" unicode="&#x44;" d="M1029 648Q1029 645 1020 644Q1003 642 996 640Q944 628 893 581Q986 499 986 369Q986 348 982 329Q952 176 819 72Q691-28 462-26Q382-25 273-10Q195 1 118 12Q178-139 377-139Q440-139 486-108Q502-97 503-98Q510-103 496-115Q453-152 372-152Q169-152 102 7Q56-7 17-11Q1-12-11.50-7.50Q-24-3-23 5Q-23 30 32 36Q63 39 93 33Q77 84 77 148Q77 367 264 520Q433 658 643 658Q789 658 877 594Q936 640 989 650Q1006 653 1017 653Q1030 653 1029 648M939 348Q944 376 944 404Q944 506 881 572Q815 516 740 426Q685 360 631 294Q498 144 372 79Q276 29 168 22Q319-9 463-9Q663-9 796 114Q916 226 939 348M865 585Q792 641 663 641Q463 641 288 496Q96 337 96 140Q96 78 112 31Q234 35 334 96Q429 153 563 298Q759 509 865 585Z"  horiz-adv-x="955" vert-adv-y="1000"  />

      
      <glyph glyph-name="uni45" unicode="&#x45;" d="M1103 553Q1097 536 1064 536Q1040 536 935 556Q895 564 810 579Q696 537 617 436Q580 389 580 355Q580 347 583 341Q600 343 638 331Q669 319 666 309Q660 298 632 304Q595 315 577 331Q533 332 448 289Q367 248 308.50 188Q250 128 230 68Q222 45 222 25Q222-47 309-50Q373-52 462-13Q544 22 620 79Q645 98 689 135Q720 161 722 161Q727 161 727 156Q727 151 700 127Q661 92 634 71Q559 13 471-26Q377-68 308-68Q246-68 208-39Q166-8 170 46Q104 51 68 96Q35 138 34 204Q32 355 180 486Q341 628 590 628Q680 628 790 604Q876 630 967 630Q990 630 1012 628Q1056 624 1082 606Q1105 589 1105 567Q1105 560 1103 553M1093 558Q1095 562 1095 567Q1095 584 1074 598.50Q1053 613 1015 616Q944 622 848 592L939 569Q1027 546 1063 546Q1087 546 1093 558M746 588Q663 597 593 597Q350 597 194 471Q127 417 88.50 343.50Q50 270 51 203Q52 142 83.50 102.50Q115 63 172 59Q180 122 241 189Q293 246 359 283Q454 337 570 341Q562 353 562 376Q562 410 581 444.50Q600 479 640 516Q688 562 746 588Z"  horiz-adv-x="678" vert-adv-y="1000"  />

      
      <glyph glyph-name="uni46" unicode="&#x46;" d="M1395 548Q1399 539 1380 537Q1357 531 1319 536Q1231 547 1099 572Q994 479 851 323Q812 281 798 268Q877 268 919 263Q942 260 930 248L901 248Q851 254 786 253Q622 82 492 5Q350-78 202-78Q136-78 96-48Q50-12 53 58Q57 135 120 224Q75 253 78 340Q80 394 113 453Q152 520 218 561Q297 609 376 631Q478 658 628 658Q784 658 1098 598Q1144 634 1190 649Q1195 651 1200.50 652Q1206 653 1209 652Q1214 651 1213 648Q1213 647 1196 639Q1160 628 1122 593Q1183 578 1323 550Q1359 544 1378 546Q1395 548 1395 548M1071 578Q792 623 627 623Q376 623 235 541Q162 499 125 440Q93 390 93 339Q92 264 127 233Q182 307 261 361Q336 412 424 440Q502 465 567 465Q658 465 658 407Q658 337 566 242Q590 251 643 258Q660 260 736 265Q763 292 804 333Q939 467 1071 578M721 251Q686 249 621 243Q569 235 537 213Q523 200 492 174Q472 157 462 157Q455 157 455 162Q455 176 483.50 198.50Q512 221 542 233Q646 341 646 408Q646 428 634 438Q618 452 582 452Q470 451 284 326Q196 267 137 196Q71 118 68 58Q61-61 203-61Q317-61 462 35Q570 106 721 251Z"  horiz-adv-x="808" vert-adv-y="1000"  />

      
      <glyph glyph-name="uni47" unicode="&#x47;" d="M1099 554Q1097 524 1056 524Q1031 524 898 550Q825 564 774 571Q608 508 451 385Q351 307 285 217Q212 118 217 53Q222-16 305-22Q409-30 543 48Q672 123 830 253Q855 284 868 303Q894 342 901 341Q907 340 907 325Q907 295 890 278Q869 257 837 233Q692 40 563-65Q365-225 173-225Q21-225 21-133Q21-79 75-37Q93-23 97-29Q99-31 87-42Q37-87 37-132Q37-209 176-205Q248-203 352-153Q446-107 525-44Q645 53 763 176L760 179Q649 92 548 33Q415-44 303-38Q255-35 221-14Q181 13 176 60Q174 76 176 94Q128 107 94 147Q53 195 53 266Q53 291 58 318Q87 460 225 540Q355 614 542 614Q644 614 768 593Q874 624 953 624Q1022 624 1061.50 604Q1101 584 1099 554M1088 554Q1088 579 1055 594Q1019 611 956 611Q896 611 813 584Q844 577 908 563Q1038 535 1056 535Q1088 535 1088 554M716 577Q641 583 544 583Q363 583 238 519Q102 448 74 319Q68 292 68 267Q68 203 107 157Q136 123 178 108Q199 249 388 400Q529 513 716 577Z"  horiz-adv-x="842" vert-adv-y="1000"  />

      
      <glyph glyph-name="uni48" unicode="&#x48;" d="M1604 538L1590 548Q1555 583 1499 583Q1305 583 1006 270Q900 159 813 39Q798 18 783-3Q771-18 761-19Q747-20 747-4Q747 39 853 165Q874 208 874 246Q874 286 851 321Q837 306 813 278Q636 72 448-19Q313-85 190-85Q26-85 26 42Q26 57 28 74Q38 145 93.50 217Q149 289 236 342Q259 356 299 375Q263 405 263 452Q263 562 407 622Q516 667 643 667Q845 667 1103 599Q1152 586 1179 574Q1202 564 1198 558Q1196 557 1190 560Q1181 563 1178 563Q1174 564 1163 563Q1067 555 861 332Q888 291 888 247Q888 223 880 198Q943 270 995 318Q1290 594 1496 594Q1578 594 1604 556Q1613 543 1604 538M1148 573Q1137 577 1105 584Q873 633 643 633Q530 633 423 595Q278 544 278 451Q278 409 313 381Q464 445 610 438Q766 430 838 361Q1051 557 1148 573M826 350Q754 419 609 423Q533 425 430 390Q336 357 257 308Q64 187 45 71Q42 55 42 41Q42-70 184-70Q285-70 432 18Q583 109 743 269L769 295Q800 325 826 350Z"  horiz-adv-x="971" vert-adv-y="1000"  />

      
      <glyph glyph-name="uni49" unicode="&#x49;" d="M1111 558Q1110 556 1100.50 559.50Q1091 563 1083 563Q1032 563 919 460Q843 390 763 298Q580 87 435-3Q300-88 163-88Q6-88 6 53Q6 137 64 220Q114 293 193 346Q247 382 314 410Q298 425 298 458Q298 557 428 619Q533 668 643 668Q810 668 1011 606Q1078 585 1105 568Q1113 563 1111 558M1068 573Q861 635 644 635Q515 635 424 592Q327 547 312 469Q305 432 324 413Q410 446 498 446Q550 446 585 429Q625 409 625 371Q625 361 622 349Q619 337 611 328Q603 319 600 322Q602 320 609 350Q612 360 612 369Q612 434 498 434Q445 434 368.50 403.50Q292 373 224 326Q22 188 22 52Q22-71 158-71Q341-71 701 289Q967 555 1068 573Z"  horiz-adv-x="707" vert-adv-y="1000"  />

      
      <glyph glyph-name="uni4a" unicode="&#x4a;" d="M1111 578Q1110 576 1099.50 579.50Q1089 583 1078 585Q1017 596 893 480Q836 428 728 306Q463 7 293-96Q202-151 102-178Q16-200-50-196Q-171-188-171-99Q-171-19-66.50 74Q38 167 186 216Q236 233 307 244Q225 270 225 368Q225 393 232 418Q260 513 356 576Q450 636 580 648Q629 652 684 652Q847 652 1007 618Q1067 605 1101 589Q1114 585 1111 578M1045 596Q938 623 755 623Q670 623 581 615Q450 603 358 547Q271 493 248 420Q240 394 240 367Q240 320 266 286.50Q292 253 339 248Q419 259 488 259Q538 259 570 253Q595 248 594 242Q594 240 573 242Q544 245 511 245Q366 245 194 190Q54 145-51 59Q-156-27-156-99Q-156-177-51-180Q82-184 283-46Q404 37 681 313Q758 389 803 431Q889 510 951 552Q1001 586 1045 596Z"  horiz-adv-x="671" vert-adv-y="1000"  />

      
      <glyph glyph-name="uni4b" unicode="&#x4b;" d="M1482 565Q1484 553 1480 551Q1479 551 1473 559Q1454 583 1409 583Q1343 583 1245 540Q1151 499 1009 418Q933 375 904 352Q866 258 850 174Q831 73 843 33Q851 13 871 13Q890 13 915 32Q920 35 922 33Q925 30 920 25Q884-16 843-16Q806-16 793 13Q785 31 785 63Q785 106 800 178.50Q815 251 855 338Q907 380 999 433Q1154 522 1221 553Q1347 611 1408 611Q1464 611 1482 565M1123 560Q1123 562 1108 565L1098 565Q1045 558 935 456Q860 386 783 298Q601 88 455-2Q319-85 181-85Q22-85 22 53Q22 135 83 220Q134 292 213 346Q270 385 335 411Q316 417 316 457Q316 557 438 618Q537 668 646 668Q828 668 1030 606Q1056 598 1106 578Q1126 567 1123 560M1084 574Q1061 582 1031 589Q832 638 647 635Q526 633 440 590Q349 544 333 468Q324 426 342 413Q432 447 518 447Q570 447 604 430Q645 410 645 371Q645 361 642 350Q639 339 630.50 329.50Q622 320 619 322Q618 323 618 324Q618 326 622 334Q626 342 628.50 351Q631 360 631 369Q631 433 518 433Q464 433 387.50 403Q311 373 243 326Q37 185 37 52Q37-70 177-70Q361-70 720 289Q979 548 1084 574Z"  horiz-adv-x="956" vert-adv-y="1000"  />

      
      <glyph glyph-name="uni4c" unicode="&#x4c;" d="M1035 603Q1041 580 1028 578Q1026 578 1017 594Q987 651 908 651Q821 651 717 557Q666 511 477 301Q251 49 78-11Q352-99 491-99Q590-99 628-48Q635-44 636-45Q642-49 636-55Q587-134 481-134Q337-134 85-31Q74-27 54-18Q5-33-39-33Q-96-33-126.50-28Q-157-23-168-11Q-171-7-171-3Q-171 20-114 23Q-48 26 58-5Q137 23 233 115Q275 155 429 322Q598 506 700 580Q814 663 914 663Q958 663 992.50 647.50Q1027 632 1035 603Z"  horiz-adv-x="471" vert-adv-y="1000"  />

      
      <glyph glyph-name="uni4d" unicode="&#x4d;" d="M1683 637Q1680 635 1674 637Q1665 640 1659 641Q1628 645 1593 634Q1454 591 1165 287Q1022 137 955 38Q920-14 904-13Q891-13 891 9Q891 23 898 38Q919 83 995 173Q1071 263 1149 337Q1377 553 1542 623Q1485 609 1434 583Q1235 483 1038 329Q902 223 720 67Q704 40 689 22Q655-19 638-19Q635-19 633-18Q628-16 628-10Q628 5 647 24Q659 36 707 77Q764 167 868 325Q1005 520 1148 582Q1129 577 1090 565Q1034 544 952 489Q887 445 755 318Q667 228 517 84Q326-83 134-70Q5-61 5 46Q5 111 51 183Q93 246 152 288Q243 352 344 366Q326 378 326 417Q326 470 371 521Q425 582 526.50 619Q628 656 748 658Q954 661 1151 608Q1206 593 1228 580Q1244 571 1239 566Q1238 564 1222 572.50Q1206 581 1188 587Q1158 585 1125 557Q1086 525 1029 453Q978 386 926 319Q824 188 769 129Q954 287 1026 343Q1223 498 1426 597Q1465 616 1522 633Q1602 657 1655 653Q1684 651 1684 639Q1684 637 1683 637M1168 593Q981 638 748 632Q635 629 539 592Q439 554 383 487Q346 443 346 401Q346 373 361 368Q401 372 435 370Q481 367 512 339.50Q543 312 543 274Q543 260 538 246Q532 229 523 229Q522 229 521 230L524 246Q527 258 527 270Q527 305 500.50 329Q474 353 432 357Q309 368 166 265Q111 226 71 171Q21 105 21 49Q21 6 49.50-22Q78-50 129-54Q204-60 307-12Q401 33 498 112Q543 149 713 308Q804 393 824 411Q879 459 936 498Q1017 554 1099 578Q1142 591 1168 593Z"  horiz-adv-x="1106" vert-adv-y="1000"  />

      
      <glyph glyph-name="uni4e" unicode="&#x4e;" d="M1590 537Q1590 528 1588 527Q1583 526 1583 534Q1565 577 1496 577Q1326 577 1099 353Q933 189 796 13Q791 2 779-20Q759-55 747-50Q732-45 754-13Q764 6 793 37Q806 61 824 137Q849 248 858 279Q892 397 955 474Q1003 532 1046 553Q1037 551 1023 547Q986 533 938 495Q848 425 731 300Q645 208 636 199Q575 135 529 94Q440 14 335-29Q236-69 145-69Q75-69 38-33Q5 0 5 56Q5 118 49 187Q88 248 144 288Q228 348 318 364Q302 379 302 413Q302 466 347 517Q401 578 502.50 615.50Q604 653 723 655Q876 657 1017 613Q1070 596 1130 559Q1139 554 1135 549Q1131 547 1128 549Q1109 560 1097 560Q1043 553 993 468Q948 393 918 292Q878 159 829 77Q923 203 1089 367Q1334 609 1501 608Q1544 608 1569 582Q1590 561 1590 537M1093 568Q939 638 723 632Q612 629 514 589.50Q416 550 358 483Q322 441 322 400Q322 377 333 367Q374 373 418 370Q463 367 494 340.50Q525 314 525 276Q525 261 519.50 245Q514 229 506 229Q505 229 504 230L508 246Q511 258 511 270Q511 305 484.50 329.50Q458 354 415 357Q354 361 280 332Q216 307 161 266.50Q106 226 68 174Q21 111 21 56Q21 7 50-22Q83-54 143-54Q293-54 508 128Q611 215 691 295Q820 424 913 496Q970 540 1019 557Q1058 570 1093 568Z"  horiz-adv-x="988" vert-adv-y="1000"  />

      
      <glyph glyph-name="uni4f" unicode="&#x4f;" d="M963 489Q967 426 925.50 370Q884 314 820 304Q764 212 692 146Q592 54 468-7Q341-69 239-73Q163-76 113-46Q49-9 46 74Q43 158 112 268Q185 383 304 473Q524 640 754 640Q839 640 892 608Q958 569 963 489M938 490Q927 624 766 624Q572 624 340 441Q216 343 144 250Q67 149 68 75Q69-69 253-57Q175-42 175 43Q175 89 198 138Q267 288 413 398Q498 462 597 500Q691 535 765 535Q781 535 795 533Q829 529 852 506Q875 483 875 448Q875 399 826 314Q878 331 911 386Q942 438 938 490M861 451Q861 522 773 522Q634 522 437 371Q269 243 213 130Q189 82 189 39Q189-51 293-51Q476-15 673 171Q739 233 789 299Q861 394 861 451Z"  horiz-adv-x="783" vert-adv-y="1000"  />

      
      <glyph glyph-name="uni50" unicode="&#x50;" d="M1041 642Q1041 639 1032 639Q1018 637 1008 634Q958 617 919 586Q955 548 955 484Q955 431 926 388Q893 340 836.50 311Q780 282 723 282Q701 282 679 287Q661 291 661 299Q661 302 663 304Q669 311 683 304Q690 300 705 295Q810 284 894 406Q931 459 931 509Q931 551 908 577Q836 522 756 430Q699 362 643 294Q506 139 374 74Q277 26 141 13Q343-27 418-22Q518-16 573 54Q577 62 580 59Q585 56 579 39Q553-35 481.50-88Q410-141 329-144Q244-147 181.50-107.50Q119-68 96 5Q88 4 31.50-9Q-25-22-61-22Q-95-22-96-11Q-98 9-61 18Q-37 24-10 24Q41 24 92 21Q83 57 84 96Q88 195 131 293Q176 396 254 473Q345 563 464 613Q595 669 735 663Q853 658 907 599Q954 631 1001 643Q1010 645 1020 646Q1029 647 1035 646Q1042 645 1041 642M895 592Q841 642 735 647Q613 653 491 597Q376 545 283 448Q106 265 100 96Q99 56 108 21Q336 36 579 298Q683 411 732 458Q820 544 895 592M563 26Q498-43 412-46Q347-48 285-36Q230-26 124 7Q119 9 113 7Q135-61 198-98Q257-132 332-129Q398-126 463.50-82Q529-38 563 26Z"  horiz-adv-x="694" vert-adv-y="1000"  />

      
      <glyph glyph-name="uni51" unicode="&#x51;" d="M919 480Q916 417 874 366.50Q832 316 767 302Q723 226 663 170Q572 84 453 27Q331-32 233-35Q203-36 178-33Q191-110 297-110Q391-110 463-42Q467-38 471-39Q476-41 471-48Q429-97 372-126Q320-153 275-153Q140-153 148-27Q53-2 48 86Q43 175 107 284Q170 390 271 471Q382 560 514 606Q634 647 734 643Q823 639 873 594.50Q923 550 919 480M894 485Q897 550 854 587Q811 624 737 628Q553 637 308 442Q210 364 142 272Q63 165 65 90Q67 11 149-12Q156 41 189 106Q265 257 412 384Q489 451 570 491Q656 533 722 533Q765 533 792.50 512Q820 491 820 449Q820 400 774 315Q825 333 858 378.50Q891 424 894 485M803 452Q803 513 743 520Q611 534 423 373Q365 324 305 248Q241 168 208 101Q173 30 176-18Q200-21 224-20Q321-16 434 43Q543 100 640 193Q698 248 743 312Q803 397 803 452Z"  horiz-adv-x="733" vert-adv-y="1000"  />

      
      <glyph glyph-name="uni52" unicode="&#x52;" d="M1041 641Q1041 638 1032 638Q1018 636 1008 633Q957 616 918 583Q950 545 950 487Q950 442 925 406Q895 364 840.50 338Q786 312 730 313Q707 240 691 163Q679 105 679 67Q679 34 688 22Q697 10 711 10Q730 10 753 33Q758 40 761 36Q764 33 758 27Q721-15 680-15Q623-15 623 56Q623 96 646 168Q665 226 705 314Q686 317 686 327Q686 342 709 336Q719 333 728 324Q818 317 893 427Q924 472 924 517Q924 554 907 575Q842 526 769 443Q718 382 667 321Q418 40 179 14Q278-1 334-3Q430-7 467 46Q471 52 473 51L473 33Q463-24 406.50-63.50Q350-103 284-101Q162-96 123 3Q111 1 69-9Q14-23-22-23Q-57-23-58-11Q-62 24 28 24Q56 24 118 22Q105 61 105 111Q105 210 153 312.50Q201 415 285 492Q466 658 696 658Q720 658 745 656Q851 647 904 597Q952 629 1001 643Q1015 647 1028 647Q1042 646 1041 641M895 590Q846 630 745 639Q727 641 708 641Q605 641 499 593Q400 550 320 476Q233 396 176.50 289Q120 182 120 99Q120 59 133 20Q242 20 369 109Q470 180 606 327Q785 520 895 590M463 27Q415-25 337-23Q300-22 246-11Q204-2 162 7Q156 8 138 6Q175-84 286-89Q343-91 396-56Q449-21 463 27Z"  horiz-adv-x="822" vert-adv-y="1000"  />

      
      <glyph glyph-name="uni53" unicode="&#x53;" d="M1235 605Q1239 596 1237 586Q1235 573 1225 573Q1220 572 1209 594Q1185 643 1123 643Q1036 643 931 544Q856 474 698 274Q431-65 206-65Q185-65 165-62Q42-44 42 84Q42 237 208 397Q287 473 377 514Q458 551 525 551Q571 551 598 533Q634 508 634 458Q634 424 619 386Q575 278 463 175Q323 47 203 47Q159 47 147 77Q141 92 149 92Q150 92 159 77Q170 58 202 58Q260 58 330 105Q368 131 446 202Q568 312 603 391Q620 428 620 462Q620 503 591 523Q568 538 535 538Q412 538 233 368Q58 201 58 75Q58 23 86.50-9Q115-41 164-48Q180-50 197-50Q299-50 414 43Q510 120 649 293Q807 490 915.50 572.50Q1024 655 1128 655Q1212 655 1235 605Z"  horiz-adv-x="680" vert-adv-y="1000"  />

      
      <glyph glyph-name="uni54" unicode="&#x54;" d="M1395 548Q1399 539 1380 537Q1357 531 1319 536Q1230 547 1102 572Q1009 489 781 248Q463-89 194-77Q53-71 53 55Q53 137 117 226Q76 254 77 328Q78 460 208 553Q368 668 665 658Q844 652 1098 598Q1143 634 1193 648Q1199 650 1204.50 651Q1210 652 1213 652Q1217 651 1216 648Q1214 644 1199 639Q1158 626 1123 593Q1235 564 1323 550Q1361 544 1378 546Q1395 548 1395 548M1073 577Q849 616 669 623Q382 634 224 535Q91 451 92 329Q93 264 123 234Q179 305 256 358Q326 407 414 436Q511 468 591 463Q698 456 693 368Q692 353 685 353Q680 354 681 373Q683 406 657 427.50Q631 449 589 450Q523 452 429 410Q353 376 281 325Q79 181 69 63Q59-57 198-61Q387-66 733 265Q910 435 914 438Q1008 526 1073 577Z"  horiz-adv-x="768" vert-adv-y="1000"  />

      
      <glyph glyph-name="uni55" unicode="&#x55;" d="M1194 615Q1194 598 1168 573Q1129 535 1040 484Q979 425 814 257Q709 146 637 32Q611-9 602-31Q583-34 583-2Q583 26 603 62Q658 163 762 260Q781 284 839 332L836 336Q831 332 744 259Q534 83 445 24Q321-59 271-59Q247-59 232-43Q217-27 217-4Q217 41 267 116Q339 225 490 358Q662 511 834 598Q733 621 607 617Q518 614 419 581Q313 545 225 484Q147 430 100 359Q56 292 54 234Q50 118 127 60Q138 53 138 49Q136 42 127 48Q30 98 37 238Q40 304 83 378Q131 462 208 516Q372 631 606 637Q734 640 857 608Q868 613 879 613Q894 613 885 599Q901 594 923 583Q937 573 932 568Q930 566 916 573Q902 580 878 588Q858 576 816 549Q642 434 494 297Q373 185 306 91Q253 17 253-17Q253-40 281-40Q323-40 438 40Q480 69 700 246Q767 300 1027 498Q1056 529 1115 587Q1162 630 1181 630Q1194 630 1194 615Z"  horiz-adv-x="801" vert-adv-y="1000"  />

      
      <glyph glyph-name="uni56" unicode="&#x56;" d="M1498 568Q1498 560 1497 559Q1496 559 1489 565Q1455 612 1373 614Q1198 618 789 288Q611 144 610 144Q515 69 448 23Q342-49 297-46Q273-45 274-21Q276 13 350 93Q381 126 578 316Q680 414 753 503Q791 549 808 582Q722 594 605 594Q518 594 417 561Q312 528 223 469Q145 418 99 350Q55 286 53 231Q48 123 125 65Q137 58 136 55Q134 48 125 53Q29 104 35 232Q38 290 81 364Q131 449 206 499Q380 614 604 614Q723 614 814 597Q823 614 828 629Q830 635 835 628Q847 611 846 589L847 589Q903 576 921 563Q935 553 930 548Q928 546 914 554Q887 568 843 576Q826 524 788 474Q732 400 593 263Q563 233 380 69Q304 1 298-20Q298-28 305-29Q327-38 439 38Q518 91 757 291Q1198 659 1379 651Q1480 646 1498 568Z"  horiz-adv-x="723" vert-adv-y="1000"  />

      
      <glyph glyph-name="uni57" unicode="&#x57;" d="M1811 575Q1814 569 1809 568Q1807 566 1803 572Q1774 619 1689 622Q1517 628 1150 295Q1071 223 991 150Q906 74 848 30Q756-39 706-39Q678-39 678-13Q674 24 733 99Q788 169 938 329Q1017 413 1073 490Q1085 506 1083 510Q1080 513 1043 488Q989 451 913 389Q855 342 796 295Q706 223 616 151Q517 72 455 30Q352-39 304-39Q278-39 281-13Q286 29 357 99Q437 176 591 327Q695 431 759 511Q798 559 811 583Q734 596 618 594Q412 590 228 469Q150 417 103 349Q59 286 57 231Q53 122 129 65Q141 58 140 55Q139 51 129 53Q32 106 39 234Q42 300 85 371Q132 448 210 499Q384 614 617 614Q731 614 818 597Q819 598 834 636Q835 639 837 639Q841 639 845.50 623Q850 607 848 590Q896 581 925 563Q940 554 934 548Q933 547 918 554Q888 569 844 577Q833 533 796 481Q745 410 604 270Q565 232 496 171Q400 88 387 76Q310 7 306-13Q304-21 312-23Q349-30 452 48Q554 130 764 298Q858 373 1033 503Q1110 555 1136 555Q1151 555 1151 540Q1151 527 1121 481Q1079 417 950 270Q902 215 768 76Q706 11 703-13Q703-22 711-23Q749-30 840 45Q910 102 1118 298Q1508 666 1691 658Q1789 654 1811 575Z"  horiz-adv-x="1071" vert-adv-y="1000"  />

      
      <glyph glyph-name="uni58" unicode="&#x58;" d="M1563 594Q1570 582 1561 581Q1558 580 1550 592Q1508 630 1421 630Q1258 630 981 377Q824 234 732 102Q679 26 671-30Q671-45 664-61Q653-64 653-29Q653 13 670 55Q695 116 761 203Q842 310 952 407Q1087 526 1222 588Q1342 643 1438 643Q1536 643 1563 594M739 212Q461-84 178-78Q112-77 72-45Q22-6 28 69Q40 215 205 358Q298 438 422 475Q417 491 437 519Q475 572 554 606Q633 640 718 640Q795 640 846 608Q908 571 908 498Q908 391 739 212M871 462Q876 480 876 498Q876 560 827 592Q786 619 722 619Q642 619 561.50 587.50Q481 556 448 511Q433 491 432 478Q495 495 544 491Q640 483 640 398Q640 387 638 375Q625 275 519 187Q388 78 263 78Q242 78 231 85Q214 95 223 102L234 95Q250 88 263 88Q356 88 501 209Q625 312 625 400Q625 473 540 479Q471 484 379 436Q302 395 227 328Q54 174 45 69Q39 4 81-31Q118-62 178-63Q420-69 715 232Q846 365 871 462Z"  horiz-adv-x="844" vert-adv-y="1000"  />

      
      <glyph glyph-name="uni59" unicode="&#x59;" d="M1563 550L1556 553Q1527 587 1486 598Q1461 604 1412 604Q1327 604 1233 560Q1139 516 1056 436Q986 368 866 226Q762 102 726 63Q652-20 593-68Q359-258 133-258Q32-258-22.50-221Q-77-184-77-118Q-77-102-74-85Q-60-10-2 30Q15 42 19 33Q21 32 9 23Q-43-15-56-83Q-59-100-59-116Q-59-241 135-241Q324-241 561-42Q613 2 664 54Q748 141 788 180Q881 279 1030 432Q973 391 797 245Q693 159 554 73Q459 14 383-19Q352-33 328-33Q305-33 300-17Q292 7 354 65Q426 127 583 275Q692 385 792 509Q823 547 843 583Q771 594 654 594Q562 594 456 562Q341 527 265.50 469Q190 411 148.50 343.50Q107 276 107 219Q107 115 174 65Q185 58 185 55Q185 50 174 53Q89 100 89 223Q89 287 128 361Q173 445 248 499Q409 614 653 614Q774 614 852 598Q862 623 865 639Q881 622 879 593Q937 583 970 563Q984 554 979 548Q978 547 963 554Q926 570 878 578Q870 544 856 523Q776 398 584 216Q536 170 386 43Q344 7 346-3Q350-19 391 0Q465 34 547 86Q623 135 752 235Q831 299 910 364Q1029 460 1116 518Q1296 639 1418 639Q1524 639 1563 560Q1565 551 1563 550Z"  horiz-adv-x="877" vert-adv-y="1000"  />

      
      <glyph glyph-name="uni5a" unicode="&#x5a;" d="M861 518Q839 432 740 344Q627 243 479 208Q512 183 512 143Q512 109 489 63Q466 17 431-18Q337-112 205.50-168.50Q74-225-54-225Q-141-225-185-194Q-229-163-222-107Q-211-22-113 34Q-19 88 98 86Q189 85 261.50 53.50Q334 22 352-29L383-1Q422 35 448.50 79Q475 123 477 155Q479 188 451 200Q425 192 392 187Q376 185 362.50 189Q349 193 351 203Q358 228 413 224Q451 221 465 216Q582 242 693 350Q790 445 823 535Q834 566 834 589Q834 640 779 645Q719 650 633 606Q569 573 516 528Q381 414 381 338Q381 294 431 294Q489 294 573 377Q605 409 635 467Q648 493 647 493Q648 488 650 484Q649 474 646 463Q632 417 588 371Q505 284 432 284Q413 284 397 291Q366 305 366 346Q366 388 399.50 443Q433 498 487 542Q548 591 617 623Q697 659 762 659Q867 659 867 565Q867 543 861 518M342-38Q324 11 256.50 38Q189 65 99 64Q1 63-92 20Q-209-34-209-122Q-209-163-168-185.50Q-127-208-55-208Q138-208 342-38Z"  horiz-adv-x="615" vert-adv-y="1000"  />

      
      <glyph glyph-name="uni5b" unicode="&#x5b;" d="M735 633Q732 623 713 623L604 623L-65-125L47-125Q64-125 63-134Q59-145 40-145L-92-145Q-113-145-113-138Q-113-129-85-98Q342 379 546 613Q564 634 573.50 638.50Q583 643 610 643L718 643Q738 643 735 633Z"  horiz-adv-x="324" vert-adv-y="1000"  />

      
      <glyph glyph-name="uni5c" unicode="&#x5c;" d="M173-92Q174-105 165-105Q156-105 155-88L125 551Q124 568 133 568Q142 568 143 548Q156 292 173-92Z"  horiz-adv-x="296" vert-adv-y="1000"  />

      
      <glyph glyph-name="uni5d" unicode="&#x5d;" d="M587 645Q608 645 608 638Q608 629 580 598Q413 412-51-113Q-69-134-78.50-138.50Q-88-143-115-143L-223-143Q-243-143-240-133Q-237-123-218-123L-109-123L560 625L448 625Q431 625 433 634Q436 645 455 645L587 645Z"  horiz-adv-x="324" vert-adv-y="1000"  />

      
      <glyph glyph-name="uni5e" unicode="&#x5e;" d="M501 183Q508 167 495 167Q488 167 477 183Q435 244 395 342Q241 237 128 183Q99 169 83 169Q75 169 75 173Q75 178 83 183Q255 284 378 377Q397 391 413 391Q429 391 433 377Q472 250 501 183Z"  horiz-adv-x="565" vert-adv-y="1000"  />

      
      <glyph glyph-name="uni5f" unicode="&#x5f;" d="M360-236L-148-236L-148-205L360-205L360-236Z"  horiz-adv-x="500" vert-adv-y="1000"  />

      
      <glyph glyph-name="uni60" unicode="&#x60;" d="M319 316Q316 313 308 318Q289 331 271 355Q249 385 248 407Q247 435 269 435Q291 435 290 403Q288 357 316 326Q322 318 319 316Z"  horiz-adv-x="250" vert-adv-y="1000"  />

      
      <glyph glyph-name="uni61" unicode="&#x61;" d="M384 286Q251 167 181 83Q139 33 139 18Q139 12 144 10Q162 1 241 63Q274 89 336 144Q344 152 348 145Q351 139 343 132Q293 88 250 53Q176-7 143-7Q107-7 107 26Q107 48 127 78Q26-7-17-7Q-51-7-51 26Q-51 86 27 166Q78 218 147.50 257Q217 296 260 296Q292 296 292 274Q292 253 261 223Q324 275 345 282Q362 288 384 286M266 281Q218 281 73 142Q-19 54-19 18Q-19 11-13 8Q1 2 58.50 43.50Q116 85 178 148Q278 251 278 270Q278 281 266 281Z"  horiz-adv-x="314" vert-adv-y="1000"  />

      
      <glyph glyph-name="uni62" unicode="&#x62;" d="M508 528L508 526Q473 516 428 482Q337 413 211 293Q161 245 105 188Q249 294 304 294Q332 294 332 266Q332 215 242 127Q105-7-3-7Q-53-7-53 32Q-53 85 67 210Q254 404 388 494Q414 511 445 521Q472 529 508 528M294 278Q242 278 92 162Q44 125 11.50 85.50Q-21 46-21 25Q-21 6-1 6Q28 6 75 41Q107 66 186 139Q222 172 257 205Q307 253 307 269Q307 278 294 278Z"  horiz-adv-x="300" vert-adv-y="1000"  />

      
      <glyph glyph-name="uni63" unicode="&#x63;" d="M259 234Q245 204 219 183Q202 169 190 169Q177 169 177 181Q177 196 211 217Q255 244 255 268Q255 281 244 281Q211 281 84 160Q-11 69-11 25Q-11 6 11 6Q47 6 108 47Q154 78 228 143Q235 150 240 145Q246 141 238 135Q196 93 133 47Q65-2 13-8Q-16-11-32 2.50Q-48 16-48 40Q-47 105 37 183Q87 229 146 261.50Q205 294 239 294Q268 294 268 268Q268 254 259 234Z"  horiz-adv-x="224" vert-adv-y="1000"  />

      
      <glyph glyph-name="uni64" unicode="&#x64;" d="M678 528L677 526Q643 518 598 483Q484 394 378 290Q240 154 180 82Q139 33 139 18Q139 12 144 10Q163 2 241 63Q275 92 336 144Q342 150 348 146Q353 141 343 132Q299 92 250 53Q175-7 143-7Q107-7 107 26Q107 48 127 78Q26-7-17-7Q-51-7-51 26Q-51 86 27 166Q78 218 147 256.50Q216 295 257 295Q288 295 288 274Q288 262 277 247L278 246Q325 297 395 361Q496 453 557 493Q585 511 613 520Q638 528 678 528M261 281Q218 281 73 142Q-20 53-20 19Q-20 11-13 8Q1 2 58.50 43.50Q116 85 178 148Q274 246 274 271Q274 281 261 281Z"  horiz-adv-x="314" vert-adv-y="1000"  />

      
      <glyph glyph-name="uni65" unicode="&#x65;" d="M272 271Q272 241 220 204Q200 190 165.50 178Q131 166 110 166Q99 166 94 169Q-11 70-11 24Q-11 6 11 6Q44 6 98 40Q157 77 225 141Q235 150 239 145Q243 140 234 131Q176 78 119 38Q46-13-3-8Q-52-3-48 46Q-42 107 30 176Q80 224 143.50 260Q207 296 242 296Q272 296 272 271M253 283Q244 290 190 251Q140 214 100 175Q103 174 108 174Q149 174 209 221Q255 258 255 277Q255 281 253 283Z"  horiz-adv-x="208" vert-adv-y="1000"  />

      
      <glyph glyph-name="uni66" unicode="&#x66;" d="M758 523Q761 506 751 503Q749 502 731 519Q690 557 629 557Q564 557 505 528Q460 506 392 450Q317 389 203 268Q279 268 283 267.50Q287 267 283 261Q283 256 273 256Q226 256 191 253Q131 184-26 14Q-160-128-278-200Q-423-287-567-287Q-648-287-706-251.50Q-764-216-770-168Q-773-143-765-142Q-758-141-758-158Q-752-201-697.50-236Q-643-271-568-271Q-436-271-302-179Q-211-117-85 17Q-33 75 135 253Q114 253 72 249Q66 248 64.50 249.50Q63 251 64 254Q65 257 73 260Q98 262 147 266Q274 400 371 471Q514 575 634 575Q748 575 758 523Z"  horiz-adv-x="171" vert-adv-y="1000"  />

      
      <glyph glyph-name="uni67" unicode="&#x67;" d="M367 285Q362 280 216 112Q67-58-43-143Q-230-287-408-287Q-481-287-538-255Q-600-221-608-168Q-612-144-603-142Q-598-140-595-158Q-586-211-527-242Q-476-270-413-270Q-262-270-83-128Q17-48 169 118L167 120Q31-7-18-7Q-53-7-53 27Q-53 88 23 166Q74 218 146 256.50Q218 295 261 295Q274 295 282.50 290.50Q291 286 291 273Q291 252 263 221L266 219Q315 268 333 278Q348 286 367 285M262 281Q215 281 69 142Q-24 53-24 19Q-24 11-17 8Q-2 2 55.50 43.50Q113 85 174 148Q275 252 275 271Q275 281 262 281Z"  horiz-adv-x="304" vert-adv-y="1000"  />

      
      <glyph glyph-name="uni68" unicode="&#x68;" d="M509 528L508 526Q476 518 429 483Q269 363 115 193Q156 225 217 257Q289 294 323 294Q357 294 357 267Q357 231 264 146Q207 94 184 68Q148 27 148 15Q148 6 159 6Q184 6 244 49Q280 75 344 130Q353 138 357 133Q361 126 353 119Q290 63 247 33Q177-16 139-8Q115-3 115 28Q115 53 135 82Q159 116 221 173Q252 200 283 227Q323 263 323 274Q323 277 320 278Q303 285 225.50 244.50Q148 204 101 164Q25 100-50-13Q-58-13-63 3Q-67 18-63 26Q-21 107 65 202Q136 281 231 367Q330 457 389 494Q420 513 445 520.50Q470 528 509 528Z"  horiz-adv-x="339" vert-adv-y="1000"  />

      
      <glyph glyph-name="uni69" unicode="&#x69;" d="M308 373Q308 345 280 345Q252 345 252 373Q252 401 280 401Q308 401 308 373M231 290Q92 165 23 83Q-17 35-17 17Q-17 7-6 7Q21 7 84 54Q139 95 189 140Q199 147 203 143Q208 138 199 132Q159 92 93 43Q24-8-14-8Q-52-8-52 23Q-52 71 22 148Q118 249 176 280Q199 292 231 290Z"  horiz-adv-x="170" vert-adv-y="1000"  />

      
      <glyph glyph-name="uni6a" unicode="&#x6a;" d="M302 373Q302 362 293 353.50Q284 345 273 345Q245 345 245 373Q245 401 273 401Q284 401 293 392.50Q302 384 302 373M231 290Q165 236 13 72Q-119-70-195-132Q-387-287-567-287Q-649-287-701-258Q-756-226-767-168Q-768-160-768-154Q-768-144-761-142Q-757-140-752-163Q-729-270-568-270Q-420-270-231-109Q-149-40 23 144Q105 232 159 272Q187 293 231 290Z"  horiz-adv-x="143" vert-adv-y="1000"  />

      
      <glyph glyph-name="uni6b" unicode="&#x6b;" d="M509 528L508 526Q474 517 429 483Q217 320 57 126Q89 153 178 218Q300 302 354 296Q389 292 382 261Q379 247 367 243Q364 243 348 257Q338 265 323 266Q271 268 212 223Q182 188 157 114Q141 65 141 42Q141 22 157 22Q172 22 230 64Q269 98 325 145Q331 151 336 146Q341 141 333 133Q271 77 235 49Q154-13 119-8Q95-4 95 28Q95 48 105 84Q121 140 149 183Q133 172 100 147Q44 103 18 77Q-7 48-49-13Q-64-13-64 13Q-64 21-62 27Q-39 87 65 202Q144 290 244 379Q334 458 387 493Q417 512 444 520Q471 528 509 528Z"  horiz-adv-x="303" vert-adv-y="1000"  />

      
      <glyph glyph-name="uni6c" unicode="&#x6c;" d="M515 528L514 526Q482 518 435 482Q305 384 124 198Q-16 54-16 18Q-16 9-5 9Q16 9 73 49Q101 68 183 139Q193 148 198 143Q202 139 193 131Q138 79 75.50 35Q13-9-17-9Q-51-9-51 24Q-51 48-29 82Q8 140 100 234Q201 337 266 394Q386 500 452 521Q479 529 515 528Z"  horiz-adv-x="167" vert-adv-y="1000"  />

      
      <glyph glyph-name="uni6d" unicode="&#x6d;" d="M524 138Q528 134 517 123Q461 71 406 33Q336-16 300-8Q276-2 276 28Q276 53 296 82Q320 116 382 173Q413 200 444 227Q483 262 483 273Q483 279 477 279Q456 279 384 236Q309 192 258 147Q200 96 111-13Q103-13 101 3Q99 17 103 26Q131 81 217 173Q223 180 278 228Q319 264 319 274Q319 277 316 278Q299 285 212.50 232Q126 179 73 129Q13 72-54-13Q-62-13-65 3Q-67 18-63 26Q-28 93 66 193Q115 245 159 274Q183 290 228 290Q154 239 86 158Q267 304 330 293Q350 289 350 268Q350 244 329 217Q445 295 485 295Q498 295 507.50 286Q517 277 517 265Q517 229 425 146Q382 107 345.50 68.50Q309 30 309 16Q309 6 320 6Q345 6 403 48Q461 90 508 133Q519 143 524 138Z"  horiz-adv-x="499" vert-adv-y="1000"  />

      
      <glyph glyph-name="uni6e" unicode="&#x6e;" d="M359 138Q364 133 353 123Q281 61 241 33Q171-16 135-8Q111-2 111 28Q111 53 131 82Q155 116 217 173Q248 200 279 227Q319 263 319 274Q319 277 316 278Q299 285 211.50 231.50Q124 178 73 129Q15 74-54-13Q-62-13-65 3Q-67 18-63 26Q-26 97 66 193Q119 248 158 274Q182 290 228 290Q159 242 88 160Q143 204 206 244Q287 294 321 294Q353 294 353 266Q353 229 260 146Q224 114 180 68Q144 30 144 16Q144 6 154 6Q181 6 238 47Q278 80 347 136Q355 143 359 138Z"  horiz-adv-x="334" vert-adv-y="1000"  />

      
      <glyph glyph-name="uni6f" unicode="&#x6f;" d="M285 267Q285 215 195 123Q65-8-1-8Q-44-8-44 38Q-44 101 34 180Q84 231 147 264Q207 296 248 296Q285 296 285 267M257 282Q206 282 71 142Q-15 53-15 21Q-15 5 1 5Q43 5 184 148Q270 236 270 271Q270 282 257 282Z"  horiz-adv-x="250" vert-adv-y="1000"  />

      
      <glyph glyph-name="uni70" unicode="&#x70;" d="M326 382Q301 370 281 353Q157 245 92 167Q133 205 192 245Q266 295 297 295Q321 295 321 265Q321 237 299.50 196.50Q278 156 246 125Q109-9 16-7Q1-7-12 2Q-20 7-21 17Q-22 27-16 28Q-10 29-8 20Q-2 9 11 8Q39 6 76.50 34.50Q114 63 201 152Q295 248 295 269Q295 276 286 276Q257 276 170 212Q90 152 28 90Q-157-96-281-268Q-305-302-308-301Q-312-301-313-295Q-314-291-313-282Q-312-274-310-266Q-300-217-197-91Q-109 18 58 188Q170 302 252 358Q266 366 292 378Q314 384 326 382Z"  horiz-adv-x="305" vert-adv-y="1000"  />

      
      <glyph glyph-name="uni71" unicode="&#x71;" d="M382 286Q287 201 178 83Q14-94-111-268Q-135-302-138-301Q-142-301-143-295Q-144-291-143-282Q-142-274-140-266Q-130-218-27-91Q18-42 124 78L122 80Q17-7-19-7Q-54-7-54 26Q-54 86 24 166Q75 218 145.50 256.50Q216 295 259 295Q288 295 288 274Q288 251 260 223L262 221Q295 249 343 282Q360 288 382 286M263 281Q216 281 70 142Q-23 53-23 19Q-23 11-16 8Q-1 2 56.50 43.50Q114 85 175 148Q276 252 276 271Q276 281 263 281Z"  horiz-adv-x="298" vert-adv-y="1000"  />

      
      <glyph glyph-name="uni72" unicode="&#x72;" d="M310 379Q315 374 249 336Q205 310 205 298Q205 291 230 283Q262 273 257 248Q248 200 169 131Q69 43 69 18Q69 9 79 9Q104 9 166 53Q188 68 273 142Q282 147 285 143Q291 137 283 132Q215 71 172 41Q105-7 76-7Q42-7 43 29Q45 88 143 173Q232 251 231 261Q230 266 209 276Q196 282 191 289Q167 264 117 213Q104 200 3 109Q-5 105-8 110Q-13 115-4 122Q42 161 105 222Q158 273 186 303Q186 318 206 339Q223 357 239 366Q255 375 271 379Q302 386 310 379Z"  horiz-adv-x="254" vert-adv-y="1000"  />

      
      <glyph glyph-name="uni73" unicode="&#x73;" d="M298 364Q298 343 247 307Q220 290 179 258Q167 245 160 207Q146 136 140 120Q117 61 60 23Q145 62 235 143Q240 148 245 143Q252 138 242 131Q158 54 67 13Q14-11-37-8Q-85-5-84 30Q-83 57-48 88Q-32 101-5 124Q28 153 42 153Q134 232 161 263Q202 312 227 334Q270 372 287 372Q298 372 298 364M155 241Q121 203 48 143Q43 129 3 102Q-15 90-47 68Q-70 51-71 33Q-73 13-46 13Q7 13 66 78Q92 107 119 156.50Q146 206 155 241Z"  horiz-adv-x="214" vert-adv-y="1000"  />

      
      <glyph glyph-name="uni74" unicode="&#x74;" d="M438 447L438 444Q406 437 358 403Q294 358 203 268Q278 268 281.50 267.50Q285 267 283 261Q281 256 272 256Q223 256 188 253Q164 229 134 198Q-6 54-6 20Q-6 6 10 6Q38 6 96 50Q151 92 203 141Q213 148 217 144Q220 140 210 128Q154 76 99 35Q38-11 3-11Q-39-11-39 30Q-39 70 30 150Q49 172 129 253Q107 251 70 249Q59 248 60 254Q61 259 71 261Q85 264 143 266Q255 377 322 415Q359 436 378 441Q406 448 438 447Z"  horiz-adv-x="186" vert-adv-y="1000"  />

      
      <glyph glyph-name="uni75" unicode="&#x75;" d="M384 292Q255 173 182 84Q138 30 138 17Q138 12 143 10Q162 1 235 59Q237 61 332 142Q341 148 345 144Q350 139 342 133Q307 99 246 51Q171-8 142-7Q106-5 106 26Q106 49 125 81Q112 68 90 51Q15-7-18-7Q-52-7-52 22Q-52 72 23 151Q98 230 175 274Q201 289 237 286Q94 169 25 84Q-18 31-18 18Q-18 12-13 10Q8 0 83 60Q118 88 178 150Q273 249 330 282Q351 295 384 292Z"  horiz-adv-x="313" vert-adv-y="1000"  />

      
      <glyph glyph-name="uni76" unicode="&#x76;" d="M263 173Q187 103 101 40Q37-7-6-7Q-46-7-46 28Q-46 78 23 149Q105 234 211 273Q153 273 105 256Q93 252 82 243Q71 234 70 234Q66 234 66 242Q66 263 98 274Q134 286 193 286Q219 286 243 283Q249 283 251 280Q252 278 244 273Q188 236 118 173Q56 117 28 83Q-12 34-12 19Q-12 9 0 9Q32 9 92 53Q188 125 266 215Q289 242 289 261Q289 280 296 288Q303 296 339 296Q356 296 356 286Q356 272 333 246.50Q310 221 263 173Z"  horiz-adv-x="287" vert-adv-y="1000"  />

      
      <glyph glyph-name="uni77" unicode="&#x77;" d="M498 280Q493 264 477 244Q454 216 420 181Q338 96 273 46Q194-15 156-7Q124-1 124 32Q124 59 147 95Q131 79 102 53Q30-7-8-7Q-46-7-46 26Q-46 74 22 148Q51 180 104 215Q162 255 212 273Q152 273 105 256Q93 252 82.50 243Q72 234 71 234Q66 234 66 244Q66 263 99.50 274.50Q133 286 206 286Q228 286 246 284Q253 284 253 281L245 273Q128 197 28 83Q-12 37-12 19Q-12 12-7 10Q18-1 95 65Q161 121 211 169Q292 247 353 269Q367 274 371 269Q375 265 366 258Q273 187 193 84Q159 40 159 21Q159 8 172 8Q203 8 264 58Q351 128 420 222Q434 241 434 256Q434 261 432 267Q430 273 430 275Q430 278 432 280Q445 296 482 296Q503 296 498 280Z"  horiz-adv-x="439" vert-adv-y="1000"  />

      
      <glyph glyph-name="uni78" unicode="&#x78;" d="M397 273Q399 264 393 261Q377 266 361 266Q332 266 230 177Q179 132 148 82Q125 44 125 27Q125 16 133 14Q156 7 210 49Q276 100 323 143Q333 152 336 147Q340 140 331 133Q263 71 226 44Q153-9 116-9Q80-9 80 22Q80 55 122 108L118 111Q99 92 79 73Q-6-8-46-8Q-69-8-76 10Q-80 26-71 33Q-68 34-62 28Q-50 22-37 22Q-2 22 71 85Q108 117 178 193Q220 239 220 266Q220 277 207 277Q186 277 135 230Q93 192 8 113Q0 108-3 113Q-7 117-1 123L120 235Q186 298 225 295Q257 292 257 267Q257 232 196 168L199 166Q216 182 252 214Q279 238 307 262Q350 297 373 296Q395 295 397 273Z"  horiz-adv-x="302" vert-adv-y="1000"  />

      
      <glyph glyph-name="uni79" unicode="&#x79;" d="M394 291Q394 290 387 285Q373 277 348 253Q285 194 173 72Q91-17 81-27Q16-94-43-140Q-236-290-416-287Q-490-286-542-255Q-597-223-608-168Q-613-144-603-142Q-598-140-595-158Q-585-210-533-241Q-486-268-421-270Q-271-274-89-128Q-29-80 46-6Q114 61 143 98Q98 58 85 48Q15-7-17-7Q-52-7-52 24Q-52 73 20 148Q100 230 176 273Q202 287 237 285Q97 172 23 83Q-19 33-19 18Q-19 9-10 9Q16 9 79 59Q151 117 228 188Q268 226 339 283Q355 293 386 293Q394 293 394 291Z"  horiz-adv-x="298" vert-adv-y="1000"  />

      
      <glyph glyph-name="uni7a" unicode="&#x7a;" d="M329 287Q331 278 317 272Q307 268 283 259Q258 246 205 211Q110 149 109 148Q48 112-62 41Q-43 51-15 51Q3 51 33 46Q63 41 73 41Q112 41 151 72Q161 80 201 120Q207 128 210 123Q214 120 208 113Q195 96 156 54Q115 16 93.50 5Q72-6 43-4Q32-3 0 7.50Q-32 18-60 18Q-77 18-92 13Q-99 7-109-3Q-123-14-127-10Q-128-3-114.50 9Q-101 21-87 29Q15 116 88 163Q136 194 260 256Q239 248 212 248Q200 248 179 250.50Q158 253 148 253Q104 253 58 200Q54 191 48 197Q42 200 48 206Q86 260 119 279Q145 294 181 293Q193 293 217.50 284Q242 275 254 273Q276 269 293 275Q317 289 324 288Q328 288 329 287Z"  horiz-adv-x="238" vert-adv-y="1000"  />

      
      <glyph glyph-name="uni7b" unicode="&#x7b;" d="M756 633Q753 626 738 628Q724 630 709 630Q610 630 505 504Q475 468 446 437Q358 343 313 313Q261 280 183 271Q203 256 203 229Q203 170 107 60Q87 39 43-9Q-1-57-1-86Q-1-117 58-130Q68-132 66-137Q64-140 47-139Q26-138 3-124Q-31-105-31-73Q-31-38 11 9L100 109Q178 197 178 238Q178 267 138 268Q120 268 124 279Q127 286 155 286Q206 286 244 304Q293 327 350 389Q400 444 438 488Q574 647 704 647Q724 647 745 643Q759 641 756 633Z"  horiz-adv-x="324" vert-adv-y="1000"  />

      
      <glyph glyph-name="uni7c" unicode="&#x7c;" d="M222-236L187-236L187 764L222 764L222-236Z"  horiz-adv-x="408" vert-adv-y="1000"  />

      
      <glyph glyph-name="uni7d" unicode="&#x7d;" d="M437 492Q407 459 355 401Q277 314 277 273Q277 243 318 243Q336 243 331 231Q328 224 300 224Q249 224 211 206Q162 183 105 121Q55 66 17 22Q-127-146-296-143Q-309-143-307-134Q-306-131-289-131Q-165-132-50 6Q-20 42 9 73Q97 167 142 197Q194 230 272 239Q250 254 250 284Q250 347 348 450Q364 466 403.50 509.50Q443 553 443 584Q443 625 383 627Q373 627 376 634Q378 637 393 638Q420 639 446 623Q476 604 476 572Q476 537 437 492Z"  horiz-adv-x="324" vert-adv-y="1000"  />

      
      <glyph glyph-name="uni7e" unicode="&#x7e;" d="M568 338Q575 334 567 319Q529 248 458 248Q428 248 368 267Q308 286 282 286Q240 286 201 247Q186 234 183 235Q178 236 178 240Q178 244 183 255Q215 324 296 324Q326 324 387 306Q448 288 474 288Q517 288 552 329Q563 341 568 338Z"  horiz-adv-x="565" vert-adv-y="1000"  />

      
      <glyph glyph-name="uni201A" unicode="&#x201A;" d="M-48-37Q-77-61-116-75Q-123-77-125-73Q-125-68-120-66Q-61-43-47-6Q-55-3-58 7Q-61 17-58 26Q-48 53-23 47Q-6 43-6 22Q-6-2-48-37Z"  horiz-adv-x="110" vert-adv-y="1000"  />

      
      <glyph glyph-name="uni201E" unicode="&#x201E;" d="M49-37Q21-60-19-75Q-27-77-28-73Q-28-68-23-66Q36-43 50-6Q42-3 39 7Q36 17 39 26Q49 53 73 47Q91 43 91 23Q91-2 49-37M-48-37Q-77-61-116-75Q-123-77-125-73Q-125-68-120-66Q-61-43-47-6Q-55-3-58 7Q-61 17-58 26Q-48 53-23 47Q-6 43-6 22Q-6-2-48-37Z"  horiz-adv-x="207" vert-adv-y="1000"  />

      
      <glyph glyph-name="uni2026" unicode="&#x2026;" d="M243 20Q243-6 216-6Q189-6 189 20Q189 48 216 48Q227 48 235 39.50Q243 31 243 20M118 20Q118-6 91-6Q64-6 64 20Q64 48 91 48Q102 48 110 39.50Q118 31 118 20M-8 20Q-8-6-34-6Q-61-6-61 20Q-61 48-34 48Q-8 48-8 20Z"  horiz-adv-x="360" vert-adv-y="1000"  />

      
      <glyph glyph-name="unia7" unicode="&#xa7;" d="M528 488Q515 495 503 502Q482 512 453 512Q394 512 366 473Q345 444 349 392Q353 366 358 317Q365 220 298 166Q261 136 204 128Q204 61 153 18Q90-35 23-31Q-7-29-27.50-15.50Q-48-2-44 13Q-40 29-23 24Q-9 16 5 8Q28-5 58-5Q112-5 142 31Q165 59 161 116Q159 140 153 191Q151 205 151 217Q151 290 205 336Q248 372 306 381Q302 436 348 480Q408 537 480 537Q511 537 532 524Q549 512 549 499Q549 480 528 488M318 261Q314 302 307 368Q246 361 214 324Q190 297 193 248Q196 191 203 140Q257 146 290 177.50Q323 209 318 261Z"  horiz-adv-x="402" vert-adv-y="1000"  />

      
      <glyph glyph-name="uni201C" unicode="&#x201C;" d="M340 453Q340 448 335 446Q276 423 262 386Q270 383 273 373Q276 363 273 354Q263 327 238 333Q221 337 221 358Q221 382 263 417Q292 441 331 455Q338 457 340 453M243 453Q243 448 238 446Q179 423 165 386Q173 383 176 373Q179 363 176 354Q166 327 142 333Q125 337 125 357Q125 382 166 417Q194 440 234 455Q242 457 243 453Z"  horiz-adv-x="207" vert-adv-y="1000"  />

      
      <glyph glyph-name="uni201D" unicode="&#x201D;" d="M286 368Q261 346 218 330Q210 328 208 332Q208 337 213 339Q274 364 287 399Q279 402 276 412Q273 422 276 431Q286 458 310 452Q327 448 327 428Q327 404 286 368M189 368Q164 346 121 330Q113 328 112 332Q112 337 117 339Q176 362 190 399Q182 402 179 412Q176 422 179 431Q189 458 213 452Q231 448 231 428Q231 404 189 368Z"  horiz-adv-x="207" vert-adv-y="1000"  />

      
      <glyph glyph-name="uni0451" unicode="&#x0451;" d="M272 271Q272 241 220 204Q200 190 165.50 178Q131 166 110 166Q99 166 94 169Q-11 70-11 24Q-11 6 11 6Q44 6 98 40Q157 77 225 141Q235 150 239 145Q243 140 234 131Q176 78 119 38Q46-13-3-8Q-52-3-48 46Q-42 107 30 176Q80 224 143.50 260Q207 296 242 296Q272 296 272 271M253 283Q244 290 190 251Q140 214 100 175Q103 174 108 174Q149 174 209 221Q255 258 255 277Q255 281 253 283M338 364Q338 338 311 338Q284 338 284 364Q284 375 292.50 383Q301 391 311 391Q322 391 330 383Q338 375 338 364M243 364Q243 338 216 338Q189 338 189 364Q189 375 197.50 383Q206 391 216 391Q227 391 235 383Q243 375 243 364Z"  horiz-adv-x="208" vert-adv-y="1000"  />

      
      <glyph glyph-name="uniab" unicode="&#xab;" d="M322 269Q329 264 317 253Q247 190 172 138Q179 91 176 38Q175 25 175 23Q173 15 167 14Q158 14 158 28Q148 97 129 143Q214 193 307 265Q319 272 322 269M221 278Q223 276 223 273Q223 268 215 260Q145 193 72 146Q79 83 76 45Q71 23 65 23Q61 22 57 37Q46 109 28 152Q101 192 208 273Q216 281 221 278Z"  horiz-adv-x="297" vert-adv-y="1000"  />

      
      <glyph glyph-name="unibb" unicode="&#xbb;" d="M249 143Q179 100 83 23Q76 14 70 18Q65 21 68 27Q71 33 74 35Q139 102 206 149Q192 205 192 250Q192 272 199 273Q205 273 209 258Q229 189 249 143M148 152Q66 99-18 30Q-28 23-31 26Q-37 29-28 43Q28 99 104 158Q93 207 90 258Q89 280 98 281Q103 281 108 267Q124 198 148 152Z"  horiz-adv-x="297" vert-adv-y="1000"  />

      
      <glyph glyph-name="uni0410" unicode="&#x0410;" d="M1361 570Q1358 564 1350 567Q1327 575 1305 573Q1238 566 1101 448Q993 357 902 253Q814 153 753 52Q738 26 721.50 0Q705-26 695-23Q684-20 684-5Q684 12 698 41Q719 85 778 167Q797 206 797 240Q797 272 780 299Q764 284 733 254Q395-83 146-83Q-7-83-7 41Q-7 122 61 207Q118 279 199 328Q311 397 469 414Q438 436 443 478Q453 570 572 625Q678 674 817 674Q946 674 1066 652Q1128 641 1252 608Q1276 602 1349 578Q1361 574 1361 570M1268 574Q1216 570 1135 537Q968 470 790 308Q811 275 811 239Q811 221 806 203Q843 251 889 298Q1119 533 1268 574M1292 587Q1280 590 1254 595Q1132 618 1077 625Q964 639 816 639Q682 639 577 595Q464 547 456 473Q452 434 485 416Q503 418 513 418Q686 421 768 336Q947 482 1117 545Q1221 583 1292 587M758 327Q677 405 514 399Q453 397 368 368Q283 339 221 300Q10 167 10 39Q10-71 141-71Q246-71 379 14Q495 88 678 258Q719 296 758 327Z"  horiz-adv-x="889" vert-adv-y="1000"  />

      
      <glyph glyph-name="uni0412" unicode="&#x0412;" d="M1038 647Q1038 644 1029 644Q1015 642 1005 639Q951 621 909 586Q948 538 948 482Q948 439 922 403Q892 361 827 331Q771 305 717 298Q791 254 791 173Q791 132 768 94Q728 28 630-11Q541-47 438-48Q317-50 183-20Q164-15 128-8Q152-91 218-134Q281-175 372-171Q438-168 486-134Q501-123 503-125Q510-131 494.50-144.50Q479-158 442-171Q402-184 369-185Q270-188 202-141.50Q134-95 112-11Q63-22 23-23Q5-23-6.50-19Q-18-15-17-7Q-15 18 43 23Q69 25 105 19Q99 56 101 95Q105 196 148 297Q194 405 272 482Q357 566 477 613Q597 660 718 657Q835 654 898 598Q951 636 998 648Q1013 652 1025 652Q1039 652 1038 647M898 577Q836 528 767 449Q755 436 662 323Q676 326 703 308Q813 318 882 416Q917 465 917 513Q917 550 898 577M886 590Q823 641 718 642Q489 645 303 463Q216 378 167 278Q121 183 118 95Q116 51 123 16Q150 9 184 16Q278 35 370 105Q445 163 570 298Q775 520 886 590M718 108Q747 152 747 200Q747 273 689 297Q678 295 665.50 300.50Q653 306 653 313Q645 302 638 294Q398 24 159 0Q169-2 187-6Q314-33 443-32Q526-31 602 7.50Q678 46 718 108Z"  horiz-adv-x="843" vert-adv-y="1000"  />

      
      <glyph glyph-name="uni0414" unicode="&#x0414;" d="M1029 648Q1029 645 1020 644Q1003 642 996 640Q944 628 893 581Q986 499 986 369Q986 348 982 329Q952 176 819 72Q691-28 462-26Q382-25 273-10Q195 1 118 12Q178-139 377-139Q440-139 486-108Q502-97 503-98Q510-103 496-115Q453-152 372-152Q169-152 102 7Q56-7 17-11Q1-12-11.50-7.50Q-24-3-23 5Q-23 30 32 36Q63 39 93 33Q77 84 77 148Q77 367 264 520Q433 658 643 658Q789 658 877 594Q936 640 989 650Q1006 653 1017 653Q1030 653 1029 648M939 348Q944 376 944 404Q944 506 881 572Q815 516 740 426Q685 360 631 294Q498 144 372 79Q276 29 168 22Q319-9 463-9Q663-9 796 114Q916 226 939 348M865 585Q792 641 663 641Q463 641 288 496Q96 337 96 140Q96 78 112 31Q234 35 334 96Q429 153 563 298Q759 509 865 585Z"  horiz-adv-x="955" vert-adv-y="1000"  />

      
      <glyph glyph-name="uni0415" unicode="&#x0415;" d="M1103 553Q1097 536 1064 536Q1040 536 935 556Q895 564 810 579Q696 537 617 436Q580 389 580 355Q580 347 583 341Q600 343 638 331Q669 319 666 309Q660 298 632 304Q595 315 577 331Q533 332 448 289Q367 248 308.50 188Q250 128 230 68Q222 45 222 25Q222-47 309-50Q373-52 462-13Q544 22 620 79Q645 98 689 135Q720 161 722 161Q727 161 727 156Q727 151 700 127Q661 92 634 71Q559 13 471-26Q377-68 308-68Q246-68 208-39Q166-8 170 46Q104 51 68 96Q35 138 34 204Q32 355 180 486Q341 628 590 628Q680 628 790 604Q876 630 967 630Q990 630 1012 628Q1056 624 1082 606Q1105 589 1105 567Q1105 560 1103 553M1093 558Q1095 562 1095 567Q1095 584 1074 598.50Q1053 613 1015 616Q944 622 848 592L939 569Q1027 546 1063 546Q1087 546 1093 558M746 588Q663 597 593 597Q350 597 194 471Q127 417 88.50 343.50Q50 270 51 203Q52 142 83.50 102.50Q115 63 172 59Q180 122 241 189Q293 246 359 283Q454 337 570 341Q562 353 562 376Q562 410 581 444.50Q600 479 640 516Q688 562 746 588Z"  horiz-adv-x="678" vert-adv-y="1000"  />

      
      <glyph glyph-name="uni0417" unicode="&#x0417;" d="M861 518Q839 432 740 344Q627 243 479 208Q512 183 512 143Q512 109 489 63Q466 17 431-18Q337-112 205.50-168.50Q74-225-54-225Q-141-225-185-194Q-229-163-222-107Q-211-22-113 34Q-19 88 98 86Q189 85 261.50 53.50Q334 22 352-29L383-1Q422 35 448.50 79Q475 123 477 155Q479 188 451 200Q425 192 392 187Q376 185 362.50 189Q349 193 351 203Q358 228 413 224Q451 221 465 216Q582 242 693 350Q790 445 823 535Q834 566 834 589Q834 640 779 645Q719 650 633 606Q569 573 516 528Q381 414 381 338Q381 294 431 294Q489 294 573 377Q605 409 635 467Q648 493 647 493Q648 488 650 484Q649 474 646 463Q632 417 588 371Q505 284 432 284Q413 284 397 291Q366 305 366 346Q366 388 399.50 443Q433 498 487 542Q548 591 617 623Q697 659 762 659Q867 659 867 565Q867 543 861 518M342-38Q324 11 256.50 38Q189 65 99 64Q1 63-92 20Q-209-34-209-122Q-209-163-168-185.50Q-127-208-55-208Q138-208 342-38Z"  horiz-adv-x="615" vert-adv-y="1000"  />

      
      <glyph glyph-name="uni0418" unicode="&#x0418;" d="M1194 615Q1194 598 1168 573Q1129 535 1040 484Q979 425 814 257Q709 146 637 32Q611-9 602-31Q583-34 583-2Q583 26 603 62Q658 163 762 260Q781 284 839 332L836 336Q831 332 744 259Q534 83 445 24Q321-59 271-59Q247-59 232-43Q217-27 217-4Q217 41 267 116Q339 225 490 358Q662 511 834 598Q733 621 607 617Q518 614 419 581Q313 545 225 484Q147 430 100 359Q56 292 54 234Q50 118 127 60Q138 53 138 49Q136 42 127 48Q30 98 37 238Q40 304 83 378Q131 462 208 516Q372 631 606 637Q734 640 857 608Q868 613 879 613Q894 613 885 599Q901 594 923 583Q937 573 932 568Q930 566 916 573Q902 580 878 588Q858 576 816 549Q642 434 494 297Q373 185 306 91Q253 17 253-17Q253-40 281-40Q323-40 438 40Q480 69 700 246Q767 300 1027 498Q1056 529 1115 587Q1162 630 1181 630Q1194 630 1194 615Z"  horiz-adv-x="801" vert-adv-y="1000"  />

      
      <glyph glyph-name="uni041A" unicode="&#x041A;" d="M1482 565Q1484 553 1480 551Q1479 551 1473 559Q1454 583 1409 583Q1343 583 1245 540Q1151 499 1009 418Q933 375 904 352Q866 258 850 174Q831 73 843 33Q851 13 871 13Q890 13 915 32Q920 35 922 33Q925 30 920 25Q884-16 843-16Q806-16 793 13Q785 31 785 63Q785 106 800 178.50Q815 251 855 338Q907 380 999 433Q1154 522 1221 553Q1347 611 1408 611Q1464 611 1482 565M1123 560Q1123 562 1108 565L1098 565Q1045 558 935 456Q860 386 783 298Q601 88 455-2Q319-85 181-85Q22-85 22 53Q22 135 83 220Q134 292 213 346Q270 385 335 411Q316 417 316 457Q316 557 438 618Q537 668 646 668Q828 668 1030 606Q1056 598 1106 578Q1126 567 1123 560M1084 574Q1061 582 1031 589Q832 638 647 635Q526 633 440 590Q349 544 333 468Q324 426 342 413Q432 447 518 447Q570 447 604 430Q645 410 645 371Q645 361 642 350Q639 339 630.50 329.50Q622 320 619 322Q618 323 618 324Q618 326 622 334Q626 342 628.50 351Q631 360 631 369Q631 433 518 433Q464 433 387.50 403Q311 373 243 326Q37 185 37 52Q37-70 177-70Q361-70 720 289Q979 548 1084 574Z"  horiz-adv-x="956" vert-adv-y="1000"  />

      
      <glyph glyph-name="uni041C" unicode="&#x041C;" d="M1683 637Q1680 635 1674 637Q1665 640 1659 641Q1628 645 1593 634Q1454 591 1165 287Q1022 137 955 38Q920-14 904-13Q891-13 891 9Q891 23 898 38Q919 83 995 173Q1071 263 1149 337Q1377 553 1542 623Q1485 609 1434 583Q1235 483 1038 329Q902 223 720 67Q704 40 689 22Q655-19 638-19Q635-19 633-18Q628-16 628-10Q628 5 647 24Q659 36 707 77Q764 167 868 325Q1005 520 1148 582Q1129 577 1090 565Q1034 544 952 489Q887 445 755 318Q667 228 517 84Q326-83 134-70Q5-61 5 46Q5 111 51 183Q93 246 152 288Q243 352 344 366Q326 378 326 417Q326 470 371 521Q425 582 526.50 619Q628 656 748 658Q954 661 1151 608Q1206 593 1228 580Q1244 571 1239 566Q1238 564 1222 572.50Q1206 581 1188 587Q1158 585 1125 557Q1086 525 1029 453Q978 386 926 319Q824 188 769 129Q954 287 1026 343Q1223 498 1426 597Q1465 616 1522 633Q1602 657 1655 653Q1684 651 1684 639Q1684 637 1683 637M1168 593Q981 638 748 632Q635 629 539 592Q439 554 383 487Q346 443 346 401Q346 373 361 368Q401 372 435 370Q481 367 512 339.50Q543 312 543 274Q543 260 538 246Q532 229 523 229Q522 229 521 230L524 246Q527 258 527 270Q527 305 500.50 329Q474 353 432 357Q309 368 166 265Q111 226 71 171Q21 105 21 49Q21 6 49.50-22Q78-50 129-54Q204-60 307-12Q401 33 498 112Q543 149 713 308Q804 393 824 411Q879 459 936 498Q1017 554 1099 578Q1142 591 1168 593Z"  horiz-adv-x="1106" vert-adv-y="1000"  />

      
      <glyph glyph-name="uni041D" unicode="&#x041D;" d="M1604 538L1590 548Q1555 583 1499 583Q1305 583 1006 270Q900 159 813 39Q798 18 783-3Q771-18 761-19Q747-20 747-4Q747 39 853 165Q874 208 874 246Q874 286 851 321Q837 306 813 278Q636 72 448-19Q313-85 190-85Q26-85 26 42Q26 57 28 74Q38 145 93.50 217Q149 289 236 342Q259 356 299 375Q263 405 263 452Q263 562 407 622Q516 667 643 667Q845 667 1103 599Q1152 586 1179 574Q1202 564 1198 558Q1196 557 1190 560Q1181 563 1178 563Q1174 564 1163 563Q1067 555 861 332Q888 291 888 247Q888 223 880 198Q943 270 995 318Q1290 594 1496 594Q1578 594 1604 556Q1613 543 1604 538M1148 573Q1137 577 1105 584Q873 633 643 633Q530 633 423 595Q278 544 278 451Q278 409 313 381Q464 445 610 438Q766 430 838 361Q1051 557 1148 573M826 350Q754 419 609 423Q533 425 430 390Q336 357 257 308Q64 187 45 71Q42 55 42 41Q42-70 184-70Q285-70 432 18Q583 109 743 269L769 295Q800 325 826 350Z"  horiz-adv-x="971" vert-adv-y="1000"  />

      
      <glyph glyph-name="uni041E" unicode="&#x041E;" d="M963 489Q967 426 925.50 370Q884 314 820 304Q764 212 692 146Q592 54 468-7Q341-69 239-73Q163-76 113-46Q49-9 46 74Q43 158 112 268Q185 383 304 473Q524 640 754 640Q839 640 892 608Q958 569 963 489M938 490Q927 624 766 624Q572 624 340 441Q216 343 144 250Q67 149 68 75Q69-69 253-57Q175-42 175 43Q175 89 198 138Q267 288 413 398Q498 462 597 500Q691 535 765 535Q781 535 795 533Q829 529 852 506Q875 483 875 448Q875 399 826 314Q878 331 911 386Q942 438 938 490M861 451Q861 522 773 522Q634 522 437 371Q269 243 213 130Q189 82 189 39Q189-51 293-51Q476-15 673 171Q739 233 789 299Q861 394 861 451Z"  horiz-adv-x="783" vert-adv-y="1000"  />

      
      <glyph glyph-name="uni0420" unicode="&#x0420;" d="M1041 642Q1041 639 1032 639Q1018 637 1008 634Q958 617 919 586Q955 548 955 484Q955 431 926 388Q893 340 836.50 311Q780 282 723 282Q701 282 679 287Q661 291 661 299Q661 302 663 304Q669 311 683 304Q690 300 705 295Q810 284 894 406Q931 459 931 509Q931 551 908 577Q836 522 756 430Q699 362 643 294Q506 139 374 74Q277 26 141 13Q343-27 418-22Q518-16 573 54Q577 62 580 59Q585 56 579 39Q553-35 481.50-88Q410-141 329-144Q244-147 181.50-107.50Q119-68 96 5Q88 4 31.50-9Q-25-22-61-22Q-95-22-96-11Q-98 9-61 18Q-37 24-10 24Q41 24 92 21Q83 57 84 96Q88 195 131 293Q176 396 254 473Q345 563 464 613Q595 669 735 663Q853 658 907 599Q954 631 1001 643Q1010 645 1020 646Q1029 647 1035 646Q1042 645 1041 642M895 592Q841 642 735 647Q613 653 491 597Q376 545 283 448Q106 265 100 96Q99 56 108 21Q336 36 579 298Q683 411 732 458Q820 544 895 592M563 26Q498-43 412-46Q347-48 285-36Q230-26 124 7Q119 9 113 7Q135-61 198-98Q257-132 332-129Q398-126 463.50-82Q529-38 563 26Z"  horiz-adv-x="694" vert-adv-y="1000"  />

      
      <glyph glyph-name="uni0421" unicode="&#x0421;" d="M1114 552Q1114 525 1078 525Q1057 525 934 553Q862 569 811 577Q656 516 513 393Q407 302 337 202Q263 97 263 32Q263-3 287.50-24.50Q312-46 360-45Q456-42 566 28Q613 58 696 124Q710 135 713 132Q719 126 704 113Q622 46 573 15Q457-58 358-61Q307-63 270-41.50Q233-20 223 22Q213 18 196 17Q116 14 72 62.50Q28 111 28 199Q28 291 84 381Q137 467 220 523Q375 627 593 627Q690 627 805 599Q895 627 983 627Q1039 627 1076.50 606.50Q1114 586 1114 552M1103 553Q1103 582 1068.50 598Q1034 614 983 614Q918 614 846 589Q878 580 938 564Q1041 536 1076 536Q1103 536 1103 553M759 584Q684 593 593 593Q383 593 238 501Q151 446 98.50 365Q46 284 45 201Q44 119 84.50 74.50Q125 30 197 30Q204 30 222 34Q216 117 287 224Q347 315 438 393Q589 521 759 584Z"  horiz-adv-x="697" vert-adv-y="1000"  />

      
      <glyph glyph-name="uni0423" unicode="&#x0423;" d="M1563 550L1556 553Q1527 587 1486 598Q1461 604 1412 604Q1327 604 1233 560Q1139 516 1056 436Q986 368 866 226Q762 102 726 63Q652-20 593-68Q359-258 133-258Q32-258-22.50-221Q-77-184-77-118Q-77-102-74-85Q-60-10-2 30Q15 42 19 33Q21 32 9 23Q-43-15-56-83Q-59-100-59-116Q-59-241 135-241Q324-241 561-42Q613 2 664 54Q748 141 788 180Q881 279 1030 432Q973 391 797 245Q693 159 554 73Q459 14 383-19Q352-33 328-33Q305-33 300-17Q292 7 354 65Q426 127 583 275Q692 385 792 509Q823 547 843 583Q771 594 654 594Q562 594 456 562Q341 527 265.50 469Q190 411 148.50 343.50Q107 276 107 219Q107 115 174 65Q185 58 185 55Q185 50 174 53Q89 100 89 223Q89 287 128 361Q173 445 248 499Q409 614 653 614Q774 614 852 598Q862 623 865 639Q881 622 879 593Q937 583 970 563Q984 554 979 548Q978 547 963 554Q926 570 878 578Q870 544 856 523Q776 398 584 216Q536 170 386 43Q344 7 346-3Q350-19 391 0Q465 34 547 86Q623 135 752 235Q831 299 910 364Q1029 460 1116 518Q1296 639 1418 639Q1524 639 1563 560Q1565 551 1563 550Z"  horiz-adv-x="877" vert-adv-y="1000"  />

      
      <glyph glyph-name="uni0425" unicode="&#x0425;" d="M1563 594Q1570 582 1561 581Q1558 580 1550 592Q1508 630 1421 630Q1258 630 981 377Q824 234 732 102Q679 26 671-30Q671-45 664-61Q653-64 653-29Q653 13 670 55Q695 116 761 203Q842 310 952 407Q1087 526 1222 588Q1342 643 1438 643Q1536 643 1563 594M739 212Q461-84 178-78Q112-77 72-45Q22-6 28 69Q40 215 205 358Q298 438 422 475Q417 491 437 519Q475 572 554 606Q633 640 718 640Q795 640 846 608Q908 571 908 498Q908 391 739 212M871 462Q876 480 876 498Q876 560 827 592Q786 619 722 619Q642 619 561.50 587.50Q481 556 448 511Q433 491 432 478Q495 495 544 491Q640 483 640 398Q640 387 638 375Q625 275 519 187Q388 78 263 78Q242 78 231 85Q214 95 223 102L234 95Q250 88 263 88Q356 88 501 209Q625 312 625 400Q625 473 540 479Q471 484 379 436Q302 395 227 328Q54 174 45 69Q39 4 81-31Q118-62 178-63Q420-69 715 232Q846 365 871 462Z"  horiz-adv-x="844" vert-adv-y="1000"  />

      
      <glyph glyph-name="uni0430" unicode="&#x0430;" d="M384 286Q251 167 181 83Q139 33 139 18Q139 12 144 10Q162 1 241 63Q274 89 336 144Q344 152 348 145Q351 139 343 132Q293 88 250 53Q176-7 143-7Q107-7 107 26Q107 48 127 78Q26-7-17-7Q-51-7-51 26Q-51 86 27 166Q78 218 147.50 257Q217 296 260 296Q292 296 292 274Q292 253 261 223Q324 275 345 282Q362 288 384 286M266 281Q218 281 73 142Q-19 54-19 18Q-19 11-13 8Q1 2 58.50 43.50Q116 85 178 148Q278 251 278 270Q278 281 266 281Z"  horiz-adv-x="314" vert-adv-y="1000"  />

      
      <glyph glyph-name="uni0434" unicode="&#x0434;" d="M367 285Q362 280 216 112Q67-58-43-143Q-230-287-408-287Q-481-287-538-255Q-600-221-608-168Q-612-144-603-142Q-598-140-595-158Q-586-211-527-242Q-476-270-413-270Q-262-270-83-128Q17-48 169 118L167 120Q31-7-18-7Q-53-7-53 27Q-53 88 23 166Q74 218 146 256.50Q218 295 261 295Q274 295 282.50 290.50Q291 286 291 273Q291 252 263 221L266 219Q315 268 333 278Q348 286 367 285M262 281Q215 281 69 142Q-24 53-24 19Q-24 11-17 8Q-2 2 55.50 43.50Q113 85 174 148Q275 252 275 271Q275 281 262 281Z"  horiz-adv-x="304" vert-adv-y="1000"  />

      
      <glyph glyph-name="uni0435" unicode="&#x0435;" d="M272 271Q272 241 220 204Q200 190 165.50 178Q131 166 110 166Q99 166 94 169Q-11 70-11 24Q-11 6 11 6Q44 6 98 40Q157 77 225 141Q235 150 239 145Q243 140 234 131Q176 78 119 38Q46-13-3-8Q-52-3-48 46Q-42 107 30 176Q80 224 143.50 260Q207 296 242 296Q272 296 272 271M253 283Q244 290 190 251Q140 214 100 175Q103 174 108 174Q149 174 209 221Q255 258 255 277Q255 281 253 283Z"  horiz-adv-x="208" vert-adv-y="1000"  />

      
      <glyph glyph-name="uni0438" unicode="&#x0438;" d="M384 292Q255 173 182 84Q138 30 138 17Q138 12 143 10Q162 1 235 59Q237 61 332 142Q341 148 345 144Q350 139 342 133Q307 99 246 51Q171-8 142-7Q106-5 106 26Q106 49 125 81Q112 68 90 51Q15-7-18-7Q-52-7-52 22Q-52 72 23 151Q98 230 175 274Q201 289 237 286Q94 169 25 84Q-18 31-18 18Q-18 12-13 10Q8 0 83 60Q118 88 178 150Q273 249 330 282Q351 295 384 292Z"  horiz-adv-x="313" vert-adv-y="1000"  />

      
      <glyph glyph-name="uni043E" unicode="&#x043E;" d="M285 267Q285 215 195 123Q65-8-1-8Q-44-8-44 38Q-44 101 34 180Q84 231 147 264Q207 296 248 296Q285 296 285 267M257 282Q206 282 71 142Q-15 53-15 21Q-15 5 1 5Q43 5 184 148Q270 236 270 271Q270 282 257 282Z"  horiz-adv-x="250" vert-adv-y="1000"  />

      
      <glyph glyph-name="uni043F" unicode="&#x043F;" d="M359 138Q364 133 353 123Q281 61 241 33Q171-16 135-8Q111-2 111 28Q111 53 131 82Q155 116 217 173Q248 200 279 227Q319 263 319 274Q319 277 316 278Q299 285 211.50 231.50Q124 178 73 129Q15 74-54-13Q-62-13-65 3Q-67 18-63 26Q-26 97 66 193Q119 248 158 274Q182 290 228 290Q159 242 88 160Q143 204 206 244Q287 294 321 294Q353 294 353 266Q353 229 260 146Q224 114 180 68Q144 30 144 16Q144 6 154 6Q181 6 238 47Q278 80 347 136Q355 143 359 138Z"  horiz-adv-x="334" vert-adv-y="1000"  />

      
      <glyph glyph-name="uni0440" unicode="&#x0440;" d="M326 382Q301 370 281 353Q157 245 92 167Q133 205 192 245Q266 295 297 295Q321 295 321 265Q321 237 299.50 196.50Q278 156 246 125Q109-9 16-7Q1-7-12 2Q-20 7-21 17Q-22 27-16 28Q-10 29-8 20Q-2 9 11 8Q39 6 76.50 34.50Q114 63 201 152Q295 248 295 269Q295 276 286 276Q257 276 170 212Q90 152 28 90Q-157-96-281-268Q-305-302-308-301Q-312-301-313-295Q-314-291-313-282Q-312-274-310-266Q-300-217-197-91Q-109 18 58 188Q170 302 252 358Q266 366 292 378Q314 384 326 382Z"  horiz-adv-x="305" vert-adv-y="1000"  />

      
      <glyph glyph-name="uni0441" unicode="&#x0441;" d="M259 234Q245 204 219 183Q202 169 190 169Q177 169 177 181Q177 196 211 217Q255 244 255 268Q255 281 244 281Q211 281 84 160Q-11 69-11 25Q-11 6 11 6Q47 6 108 47Q154 78 228 143Q235 150 240 145Q246 141 238 135Q196 93 133 47Q65-2 13-8Q-16-11-32 2.50Q-48 16-48 40Q-47 105 37 183Q87 229 146 261.50Q205 294 239 294Q268 294 268 268Q268 254 259 234Z"  horiz-adv-x="224" vert-adv-y="1000"  />

      
      <glyph glyph-name="uni0442" unicode="&#x0442;" d="M524 138Q528 134 517 123Q461 71 406 33Q336-16 300-8Q276-2 276 28Q276 53 296 82Q320 116 382 173Q413 200 444 227Q483 262 483 273Q483 279 477 279Q456 279 384 236Q309 192 258 147Q200 96 111-13Q103-13 101 3Q99 17 103 26Q131 81 217 173Q223 180 278 228Q319 264 319 274Q319 277 316 278Q299 285 212.50 232Q126 179 73 129Q13 72-54-13Q-62-13-65 3Q-67 18-63 26Q-28 93 66 193Q115 245 159 274Q183 290 228 290Q154 239 86 158Q267 304 330 293Q350 289 350 268Q350 244 329 217Q445 295 485 295Q498 295 507.50 286Q517 277 517 265Q517 229 425 146Q382 107 345.50 68.50Q309 30 309 16Q309 6 320 6Q345 6 403 48Q461 90 508 133Q519 143 524 138Z"  horiz-adv-x="499" vert-adv-y="1000"  />

      
      <glyph glyph-name="uni0443" unicode="&#x0443;" d="M394 291Q394 290 387 285Q373 277 348 253Q285 194 173 72Q91-17 81-27Q16-94-43-140Q-236-290-416-287Q-490-286-542-255Q-597-223-608-168Q-613-144-603-142Q-598-140-595-158Q-585-210-533-241Q-486-268-421-270Q-271-274-89-128Q-29-80 46-6Q114 61 143 98Q98 58 85 48Q15-7-17-7Q-52-7-52 24Q-52 73 20 148Q100 230 176 273Q202 287 237 285Q97 172 23 83Q-19 33-19 18Q-19 9-10 9Q16 9 79 59Q151 117 228 188Q268 226 339 283Q355 293 386 293Q394 293 394 291Z"  horiz-adv-x="298" vert-adv-y="1000"  />

      
      <glyph glyph-name="uni0445" unicode="&#x0445;" d="M397 273Q399 264 393 261Q377 266 361 266Q332 266 230 177Q179 132 148 82Q125 44 125 27Q125 16 133 14Q156 7 210 49Q276 100 323 143Q333 152 336 147Q340 140 331 133Q263 71 226 44Q153-9 116-9Q80-9 80 22Q80 55 122 108L118 111Q99 92 79 73Q-6-8-46-8Q-69-8-76 10Q-80 26-71 33Q-68 34-62 28Q-50 22-37 22Q-2 22 71 85Q108 117 178 193Q220 239 220 266Q220 277 207 277Q186 277 135 230Q93 192 8 113Q0 108-3 113Q-7 117-1 123L120 235Q186 298 225 295Q257 292 257 267Q257 232 196 168L199 166Q216 182 252 214Q279 238 307 262Q350 297 373 296Q395 295 397 273Z"  horiz-adv-x="302" vert-adv-y="1000"  />

      
      <glyph glyph-name="uni0413" unicode="&#x0413;" d="M1395 548Q1399 539 1380 537Q1357 531 1319 536Q1230 547 1102 572Q1009 489 781 248Q463-89 194-77Q53-71 53 55Q53 137 117 226Q76 254 77 328Q78 460 208 553Q368 668 665 658Q844 652 1098 598Q1143 634 1193 648Q1199 650 1204.50 651Q1210 652 1213 652Q1217 651 1216 648Q1214 644 1199 639Q1158 626 1123 593Q1235 564 1323 550Q1361 544 1378 546Q1395 548 1395 548M1073 577Q849 616 669 623Q382 634 224 535Q91 451 92 329Q93 264 123 234Q179 305 256 358Q326 407 414 436Q511 468 591 463Q698 456 693 368Q692 353 685 353Q680 354 681 373Q683 406 657 427.50Q631 449 589 450Q523 452 429 410Q353 376 281 325Q79 181 69 63Q59-57 198-61Q387-66 733 265Q910 435 914 438Q1008 526 1073 577Z"  horiz-adv-x="768" vert-adv-y="1000"  />

      
      <glyph glyph-name="uni0411" unicode="&#x0411;" d="M142 270Q121 183 118 95Q116 51 123 16Q150 9 184 16Q278 35 370 105Q445 163 570 298Q778 518 866 572Q644 611 464 618Q260 620 142 270M718 108Q747 152 747 200Q741 265 689 297Q676 306 653 313Q645 302 638 294Q398 24 159 0Q169-2 187-6Q314-33 443-32Q526-31 602 7.50Q678 46 718 108M124 286Q192 653 460 653Q639 647 893 593Q938 629 988 643Q994 645 999.50 646Q1005 647 1008 647Q1012 646 1011 643Q1009 639 994 634Q953 621 918 588Q1030 559 1118 545Q1156 539 1173 541Q1190 543 1192 538.50Q1194 534 1175 532Q1152 526 1114 531Q1025 542 895 567Q836 528 767 449Q755 436 662 323Q676 326 703 308Q791 254 791 173Q791 132 768 94Q728 28 630-11Q541-47 438-48Q317-50 183-20Q164-15 128-8Q152-91 218-134Q281-175 372-171Q438-168 486-134Q501-123 503-125Q510-131 494.50-144.50Q479-158 442-171Q402-184 369-185Q270-188 202-141.50Q134-95 112-11Q63-22 23-23Q5-23-6.50-19Q-18-15-17-7Q-15 18 43 23Q69 25 105 19Q99 56 101 95Q105 196 124 286Z"  horiz-adv-x="843" vert-adv-y="1000"  />

      
      <glyph glyph-name="uni0416" unicode="&#x0416;" d="M1265 377Q1108 234 1016 102Q963 26 955-30Q955-45 948-61Q937-64 937-29Q937 13 954 55Q979 116 1008 150Q923 74 865 30Q773-39 723-39Q695-39 695-13Q691 24 750 99Q805 169 955 329Q1034 413 1090 490Q1102 506 1100 510Q1097 513 1060 488Q1006 451 930 389Q872 342 788 268Q468-92 178-78Q112-77 72-45Q22-6 28 69Q40 215 205 358Q298 438 422 475Q417 491 437 519Q475 572 554 606Q633 640 718 640Q795 640 846 608Q908 571 908 498Q901 413 854 355Q875 373 1050 503Q1127 555 1153 555Q1168 555 1168 540Q1168 527 1138 481Q1096 417 967 270Q919 215 785 76Q723 11 720-13Q720-22 728-23Q766-30 857 45Q927 102 1135 298Q1525 666 1708 658Q1806 654 1828 575Q1831 569 1826 568Q1824 566 1820 572Q1791 619 1706 622Q1540 618 1265 377M871 462Q876 480 876 498Q876 560 827 592Q786 619 722 619Q642 619 561.50 587.50Q481 556 448 511Q433 491 432 478Q495 495 544 491Q640 483 640 398Q640 387 638 375Q625 275 519 187Q388 78 263 78Q242 78 231 85Q214 95 223 102L234 95Q250 88 263 88Q356 88 501 209Q625 312 625 400Q625 473 540 479Q471 484 379 436Q302 395 227 328Q54 174 45 69Q39 4 81-31Q118-62 178-63Q420-69 715 232Q846 365 871 462Z"  horiz-adv-x="1105" vert-adv-y="1000"  />

      
      <glyph glyph-name="uni041B" unicode="&#x041B;" d="M1235 605Q1239 596 1237 586Q1235 573 1225 573Q1220 572 1209 594Q1185 643 1123 643Q1036 643 931 544Q856 474 698 274Q431-65 206-65Q185-65 165-62Q42-44 42 84Q42 237 208 397Q287 473 377 514Q458 551 525 551Q571 551 598 533Q634 508 634 458Q634 424 619 386Q575 278 463 175Q323 47 203 47Q159 47 147 77Q141 92 149 92Q150 92 159 77Q170 58 202 58Q260 58 330 105Q368 131 446 202Q568 312 603 391Q620 428 620 462Q620 503 591 523Q568 538 535 538Q412 538 233 368Q58 201 58 75Q58 23 86.50-9Q115-41 164-48Q180-50 197-50Q299-50 414 43Q510 120 649 293Q807 490 915.50 572.50Q1024 655 1128 655Q1212 655 1235 605M1352 631Q1402 657 1455 653Q1484 651 1484 639Q1484 637 1483 637Q1480 635 1474 637Q1465 640 1459 641Q1428 645 1393 634Q1254 591 965 287Q822 137 755 38Q720-14 704-13Q691-13 691 9Q691 23 698 38Q719 83 795 173Q871 263 949 337Q1177 553 1352 631Z"  horiz-adv-x="906" vert-adv-y="1000"  />

      
      <glyph glyph-name="uni041F" unicode="&#x041F;" d="M1510 581Q1513 563 1467 579Q1305 583 1006 270Q900 159 813 39Q798 18 783-3Q771-18 761-19Q747-20 747-4Q747 39 853 165Q943 270 995 318Q1299 591 1430 589Q1378 599 1219 609Q873 633 643 633Q530 633 423 595Q278 544 278 451Q278 409 313 381Q464 445 610 438Q669 438 710 421Q730 412 715 404Q680 421 609 423Q533 425 430 390Q336 357 257 308Q64 187 45 71Q42 55 42 41Q42-70 184-70Q285-70 432 18Q583 109 743 269L769 295Q800 325 826 350Q1050 565 1164 576Q1196 578 1198 558Q1196 557 1190 560Q1181 563 1178 563Q1174 564 1163 563Q1067 555 861 332Q837 306 813 278Q636 72 448-19Q313-85 190-85Q26-85 26 42Q26 57 28 74Q38 145 93.50 217Q149 289 236 342Q259 356 299 375Q263 405 263 452Q263 562 407 622Q516 667 643 667Q845 667 1285 628Q1452 612 1490 595Q1578 594 1604 556Q1613 543 1604 538L1590 548Q1555 583 1510 581Z"  horiz-adv-x="971" vert-adv-y="1000"  />

      
      <glyph glyph-name="uni0422" unicode="&#x0422;" d="M1611 562Q1469 515 1235 270Q1129 159 1042 39Q1027 18 1012-3Q1000-18 990-19Q976-20 976-4Q976 39 1082 165Q1172 270 1224 318Q1434 516 1577 568Q1414 597 1219 609Q873 633 643 633Q530 633 423 595Q278 544 278 451Q278 409 313 381Q464 445 610 438Q669 438 710 421Q730 412 715 404Q680 421 609 423Q533 425 430 390Q336 357 257 308Q64 187 45 71Q42 55 42 41Q42-70 184-70Q285-70 432 18Q583 109 743 269L769 295Q800 325 826 350Q1050 565 1164 576Q1196 578 1198 558Q1196 557 1190 560Q1181 563 1178 563Q1174 564 1163 563Q1067 555 861 332Q837 306 813 278Q636 72 448-19Q313-85 190-85Q26-85 26 42Q26 57 28 74Q38 145 93.50 217Q149 289 236 342Q259 356 299 375Q263 405 263 452Q263 562 407 622Q516 667 643 667Q845 667 1285 628Q1463 612 1605 579Q1650 597 1704 596Q1807 594 1833 556Q1842 543 1833 538L1819 548Q1784 583 1696 579Q1661 580 1635 572Q1651 569 1679 560Q1692 539 1647 554Q1620 560 1611 562M1352 568Q1416 586 1441 559Q1438 553 1430 556Q1408 564 1385 562Q1318 555 1181 437Q1073 346 982 242Q894 142 833 41Q818 15 801.50-11Q785-37 775-34Q764-31 764-16Q764 1 778 30Q799 74 886 192Q923 240 969 287Q1199 522 1352 568Z"  horiz-adv-x="1201" vert-adv-y="1000"  />

      
      <glyph glyph-name="uni0424" unicode="&#x0424;" d="M524 444Q557 473 601 498Q696 552 812 556Q909 559 966 522Q1027 566 1068 573Q861 635 644 635Q515 635 424 592Q327 547 312 469Q305 432 324 413Q410 446 524 444M581 431Q625 410 625 371Q625 361 622 349Q619 337 611 328Q603 319 600 322Q602 320 609 350Q612 360 612 369Q612 408 570 423Q492 343 472 283Q464 260 464 240Q464 168 574 167Q627 215 701 289Q860 448 953 512Q905 541 833 541Q759 541 690 504Q626 472 581 431M513 434Q445 434 368.50 403.50Q292 373 224 326Q22 188 22 52Q22-71 158-71Q303-71 550 147Q488 147 450 176Q408 207 412 261Q422 337 483 404Q500 423 513 434M982 512Q996 503 1010 491Q1058 440 1058 376Q1058 323 1029 280Q996 232 939.50 203Q883 174 826 174Q804 174 782 179Q764 183 764 191Q764 194 766 196Q772 203 786 196Q793 192 808 187Q913 176 997 298Q1034 351 1034 401Q1034 443 1003 477Q983 495 970 503Q949 488 919 460Q843 390 763 298Q580 87 435-3Q300-88 163-88Q6-88 6 53Q6 137 64 220Q114 293 193 346Q247 382 314 410Q298 425 298 458Q298 557 428 619Q533 668 643 668Q810 668 1011 606Q1078 585 1105 568Q1113 563 1111 558Q1110 556 1100.50 559.50Q1091 563 1083 563Q1046 563 982 512Z"  horiz-adv-x="937" vert-adv-y="1000"  />

      
      <glyph glyph-name="uni0426" unicode="&#x0426;" d="M342-142Q398-69 504-71Q576-75 643.50-111.50Q711-148 736-183Q807-116 786-64Q756-12 688-25Q625-40 602-31Q581-22 583-2Q583 26 603 62Q658 163 762 260Q781 284 839 332L836 336Q831 332 744 259Q534 83 445 24Q321-59 271-59Q247-59 232-43Q217-27 217-4Q217 41 267 116Q339 225 490 358Q662 511 834 598Q733 621 607 617Q518 614 419 581Q313 545 225 484Q147 430 100 359Q56 292 54 234Q50 118 127 60Q138 53 138 49Q136 42 127 48Q30 98 37 238Q40 304 83 378Q131 462 208 516Q372 631 606 637Q734 640 857 608Q868 613 879 613Q894 613 885 599Q901 594 923 583Q937 573 932 568Q930 566 916 573Q902 580 878 588Q858 576 816 549Q642 434 494 297Q373 185 306 91Q253 17 253-17Q253-40 281-40Q323-40 438 40Q480 69 700 246Q767 300 1027 498Q1056 529 1115 587Q1162 630 1181 630Q1194 630 1194 615Q1194 598 1168 573Q1129 535 1040 484Q979 425 814 257Q709 146 622 0Q750 36 805-21Q857-91 781-167Q688-246 587-273Q486-300 420-294Q348-286 330-241Q312-196 342-142M372-138Q333-188 354-234.50Q375-281 451-277Q597-270 717-195Q692-155 618.50-122.50Q545-90 486-92Q413-97 372-138Z"  horiz-adv-x="880" vert-adv-y="1000"  />

      
      <glyph glyph-name="uni0428" unicode="&#x0428;" d="M678 93Q625 19 625-15Q625-38 653-38Q695-38 810 42Q852 71 1072 248Q1139 302 1399 500Q1428 531 1487 589Q1534 632 1553 632Q1566 632 1566 617Q1566 600 1540 575Q1501 537 1412 486Q1351 427 1186 259Q1081 148 1009 34Q983-7 974-29Q955-32 955 0Q955 28 975 64Q1030 165 1134 262Q1153 286 1211 334L1208 338Q1203 334 1116 261Q906 85 817 26Q693-57 643-57Q619-57 604-41Q589-25 589-2Q589 43 639 118Q676 170 762 260Q781 284 839 332L836 336Q831 332 744 259Q534 83 445 24Q321-59 271-59Q247-59 232-43Q217-27 217-4Q217 41 267 116Q339 225 490 358Q662 511 834 598Q733 621 607 617Q518 614 419 581Q313 545 225 484Q147 430 100 359Q56 292 54 234Q50 118 127 60Q138 53 138 49Q136 42 127 48Q30 98 37 238Q40 304 83 378Q131 462 208 516Q372 631 606 637Q734 640 857 608Q868 613 879 613Q894 613 885 599Q901 594 923 583Q937 573 932 568Q930 566 916 573Q902 580 878 588Q858 576 816 549Q642 434 494 297Q373 185 306 91Q253 17 253-17Q253-40 281-40Q323-40 438 40Q480 69 700 246Q767 300 1027 498Q1056 529 1115 587Q1162 630 1181 630Q1194 630 1194 615Q1194 598 1168 573Q1129 535 1040 484Q979 425 814 257Q721 149 678 93Z"  horiz-adv-x="1173" vert-adv-y="1000"  />

      
      <glyph glyph-name="uni0429" unicode="&#x0429;" d="M653-38Q695-38 810 42Q852 71 1072 248Q1139 302 1399 500Q1428 531 1487 589Q1534 632 1553 632Q1566 632 1566 617Q1566 600 1540 575Q1501 537 1412 486Q1351 427 1186 259Q1081 148 994 2Q1122 38 1177-19Q1229-89 1153-165Q1060-244 959-271Q858-298 792-292Q720-284 702-239Q684-194 714-140Q770-67 876-69Q948-73 1015.50-109.50Q1083-146 1108-181Q1179-114 1158-62Q1128-10 1060-23Q997-38 974-29Q953-20 955 0Q955 28 975 64Q1030 165 1134 262Q1153 286 1211 334L1208 338Q1203 334 1116 261Q906 85 817 26Q693-57 643-57Q619-57 604-41Q589-25 589-2Q589 43 639 118Q676 170 762 260Q781 284 839 332L836 336Q831 332 744 259Q534 83 445 24Q321-59 271-59Q247-59 232-43Q217-27 217-4Q217 41 267 116Q339 225 490 358Q662 511 834 598Q733 621 607 617Q518 614 419 581Q313 545 225 484Q147 430 100 359Q56 292 54 234Q50 118 127 60Q138 53 138 49Q136 42 127 48Q30 98 37 238Q40 304 83 378Q131 462 208 516Q372 631 606 637Q734 640 857 608Q868 613 879 613Q894 613 885 599Q901 594 923 583Q937 573 932 568Q930 566 916 573Q902 580 878 588Q858 576 816 549Q642 434 494 297Q373 185 306 91Q253 17 253-17Q253-40 281-40Q323-40 438 40Q480 69 700 246Q767 300 1027 498Q1056 529 1115 587Q1162 630 1181 630Q1194 630 1194 615Q1194 598 1168 573Q1129 535 1040 484Q979 425 814 257Q721 149 678 93Q625 19 625-15Q625-38 653-38M744-136Q705-186 726-232.50Q747-279 823-275Q969-268 1089-193Q1064-153 990.50-120.50Q917-88 858-90Q785-95 744-136Z"  horiz-adv-x="1252" vert-adv-y="1000"  />

      
      <glyph glyph-name="uni042C" unicode="&#x042C;" d="M886 590Q823 641 718 642Q489 645 303 463Q216 378 167 278Q121 183 118 95Q116 51 123 16Q150 9 184 16Q278 35 370 105Q445 163 570 298Q775 520 886 590M718 108Q747 152 747 200Q750 259 689 297Q671 306 653 313Q645 302 638 294Q398 24 159 0Q169-2 187-6Q314-33 443-32Q526-31 602 7.50Q678 46 718 108M1027 632Q1026 646 1005 639Q951 621 911 589Q915 583 931 581.50Q947 580 966 584.50Q985 589 1002 600.50Q1019 612 1027 632M1025 652Q1038 652 1039 639Q1039 624 1029 613Q1021 598 1002 588.50Q983 579 962 575Q941 571 923 572Q905 573 899 580Q836 528 767 449Q755 436 662 323Q676 326 710 305Q791 254 791 173Q791 132 768 94Q728 28 630-11Q541-47 438-48Q317-50 183-20Q164-15 128-8Q152-91 218-134Q281-175 372-171Q438-168 486-134Q501-123 503-125Q510-131 494.50-144.50Q479-158 442-171Q402-184 369-185Q270-188 202-141.50Q134-95 112-11Q63-22 23-23Q5-23-6.50-19Q-18-15-17-7Q-15 18 43 23Q69 25 105 19Q99 56 101 95Q105 196 148 297Q194 405 272 482Q357 566 477 613Q597 660 718 657Q835 654 898 598Q951 636 998 648Q1013 652 1025 652Z"  horiz-adv-x="843" vert-adv-y="1000"  />

      
      <glyph glyph-name="uni042B" unicode="&#x042B;" d="M886 590Q823 641 718 642Q489 645 303 463Q216 378 167 278Q121 183 118 95Q116 51 123 16Q150 9 184 16Q278 35 370 105Q445 163 570 298Q775 520 886 590M718 108Q747 152 747 200Q750 259 689 297Q671 306 653 313Q645 302 638 294Q398 24 159 0Q169-2 187-6Q314-33 443-32Q526-31 602 7.50Q678 46 718 108M1027 632Q1026 646 1005 639Q951 621 911 589Q915 583 931 581.50Q947 580 966 584.50Q985 589 1002 600.50Q1019 612 1027 632M1025 652Q1038 652 1039 639Q1039 624 1029 613Q1021 598 1002 588.50Q983 579 962 575Q941 571 923 572Q905 573 899 580Q836 528 767 449Q755 436 662 323Q676 326 710 305Q791 254 791 173Q791 132 768 94Q728 28 630-11Q541-47 438-48Q317-50 183-20Q164-15 128-8Q152-91 218-134Q281-175 372-171Q438-168 486-134Q501-123 503-125Q510-131 494.50-144.50Q479-158 442-171Q402-184 369-185Q270-188 202-141.50Q134-95 112-11Q63-22 23-23Q5-23-6.50-19Q-18-15-17-7Q-15 18 43 23Q69 25 105 19Q99 56 101 95Q105 196 148 297Q194 405 272 482Q357 566 477 613Q597 660 718 657Q835 654 898 598Q951 636 998 648Q1013 652 1025 652M829 77Q923 203 1089 367Q1334 609 1501 608Q1544 608 1569 582Q1590 561 1590 537Q1590 528 1588 527Q1583 526 1583 534Q1565 577 1496 577Q1326 577 1099 353Q933 189 796 13Q791 2 779-20Q759-55 747-50Q732-45 754-13Q764 6 793 37Q812 58 829 77Z"  horiz-adv-x="988" vert-adv-y="1000"  />

      
      <glyph glyph-name="uni0401" unicode="&#x0401;" d="M1103 553Q1097 536 1064 536Q1040 536 935 556Q895 564 810 579Q696 537 617 436Q580 389 580 355Q580 347 583 341Q600 343 638 331Q669 319 666 309Q660 298 632 304Q595 315 577 331Q533 332 448 289Q367 248 308.50 188Q250 128 230 68Q222 45 222 25Q222-47 309-50Q373-52 462-13Q544 22 620 79Q645 98 689 135Q720 161 722 161Q727 161 727 156Q727 151 700 127Q661 92 634 71Q559 13 471-26Q377-68 308-68Q246-68 208-39Q166-8 170 46Q104 51 68 96Q35 138 34 204Q32 355 180 486Q341 628 590 628Q680 628 790 604Q876 630 967 630Q990 630 1012 628Q1056 624 1082 606Q1105 589 1105 567Q1105 560 1103 553M1093 558Q1095 562 1095 567Q1095 584 1074 598.50Q1053 613 1015 616Q944 622 848 592L939 569Q1027 546 1063 546Q1087 546 1093 558M746 588Q663 597 593 597Q350 597 194 471Q127 417 88.50 343.50Q50 270 51 203Q52 142 83.50 102.50Q115 63 172 59Q180 122 241 189Q293 246 359 283Q454 337 570 341Q562 353 562 376Q562 410 581 444.50Q600 479 640 516Q688 562 746 588M1161 731Q1161 705 1134 705Q1107 705 1107 731Q1107 742 1115.50 750Q1124 758 1134 758Q1145 758 1153 750Q1161 742 1161 731M1066 731Q1066 705 1039 705Q1012 705 1012 731Q1012 742 1020.50 750Q1029 758 1039 758Q1050 758 1058 750Q1066 742 1066 731Z"  horiz-adv-x="678" vert-adv-y="1000"  />

      
      <glyph glyph-name="uni0419" unicode="&#x0419;" d="M1194 615Q1194 598 1168 573Q1129 535 1040 484Q979 425 814 257Q709 146 637 32Q611-9 602-31Q583-34 583-2Q583 26 603 62Q658 163 762 260Q781 284 839 332L836 336Q831 332 744 259Q534 83 445 24Q321-59 271-59Q247-59 232-43Q217-27 217-4Q217 41 267 116Q339 225 490 358Q662 511 834 598Q733 621 607 617Q518 614 419 581Q313 545 225 484Q147 430 100 359Q56 292 54 234Q50 118 127 60Q138 53 138 49Q136 42 127 48Q30 98 37 238Q40 304 83 378Q131 462 208 516Q372 631 606 637Q734 640 857 608Q868 613 879 613Q894 613 885 599Q901 594 923 583Q937 573 932 568Q930 566 916 573Q902 580 878 588Q858 576 816 549Q642 434 494 297Q373 185 306 91Q253 17 253-17Q253-40 281-40Q323-40 438 40Q480 69 700 246Q767 300 1027 498Q1056 529 1115 587Q1162 630 1181 630Q1194 630 1194 615M1032 782Q1032 790 1038 790Q1042 790 1047 784Q1057 767 1068 727Q1154 773 1198 788Q1212 794 1212 787Q1219 782 1209 777Q1128 731 1062 686Q1050 678 1047 678Q1040 678 1040 691Q1039 736 1032 782Z"  horiz-adv-x="801" vert-adv-y="1000"  />

      
      <glyph glyph-name="uni0439" unicode="&#x0439;" d="M384 292Q255 173 182 84Q138 30 138 17Q138 12 143 10Q162 1 235 59Q237 61 332 142Q341 148 345 144Q350 139 342 133Q307 99 246 51Q171-8 142-7Q106-5 106 26Q106 49 125 81Q112 68 90 51Q15-7-18-7Q-52-7-52 22Q-52 72 23 151Q98 230 175 274Q201 289 237 286Q94 169 25 84Q-18 31-18 18Q-18 12-13 10Q8 0 83 60Q118 88 178 150Q273 249 330 282Q351 295 384 292M288 415Q288 423 294 423Q298 423 303 417Q313 400 324 360Q410 406 454 421Q468 427 468 420Q475 415 465 410Q384 364 318 319Q306 311 303 311Q296 311 296 324Q295 369 288 415Z"  horiz-adv-x="313" vert-adv-y="1000"  />

      
      <glyph glyph-name="uni042A" unicode="&#x042A;" d="M718 108Q747 152 747 200Q750 259 689 297Q671 306 653 313Q645 302 638 294Q398 24 159 0Q169-2 187-6Q314-33 443-32Q526-31 602 7.50Q678 46 718 108M123 16Q150 9 184 16Q278 35 370 105Q445 163 570 298Q716 459 749 503Q787 549 804 582Q718 594 601 594Q514 594 413 561Q308 528 219 469Q141 418 95 350Q51 286 49 231Q44 123 121 65Q133 58 132 55Q130 48 121 53Q25 104 31 232Q34 290 77 364Q127 449 202 499Q376 614 600 614Q719 614 810 597Q819 614 824 629Q826 635 831 628Q843 611 842 589L843 589Q906 573 917 563Q931 553 926 548Q924 546 910 554Q883 568 839 576Q822 524 784 474Q755 436 662 323Q676 326 710 305Q791 254 791 173Q791 132 768 94Q728 28 630-11Q541-47 438-48Q317-50 183-20Q164-15 128-8Q63-22 23-23Q5-23-6.50-19Q-18-15-17-7Q-15 18 43 23Q69 25 123 16Z"  horiz-adv-x="843" vert-adv-y="1000"  />

      
      <glyph glyph-name="uni0427" unicode="&#x0427;" d="M631 292Q700 381 792 509Q823 547 843 583Q771 594 654 594Q562 594 456 562Q341 527 265.50 469Q190 411 148.50 343.50Q107 276 107 219Q107 115 174 65Q185 58 185 55Q185 50 174 53Q89 100 89 223Q89 287 128 361Q173 445 248 499Q409 614 653 614Q774 614 852 598Q862 623 865 639Q881 622 879 593Q937 583 970 563Q984 554 979 548Q978 547 963 554Q926 570 878 578Q870 544 856 523Q774 398 667 270Q636 227 638 217Q642 201 683 220Q757 254 828 304Q867 329 910 364Q1029 460 1116 518Q1296 639 1418 639Q1524 639 1563 560Q1565 551 1563 550L1556 553Q1527 587 1486 598Q1461 604 1412 604Q1327 604 1233 560Q1139 516 1056 436Q998 384 886 257Q781 146 709 32Q683-9 674-31Q655-34 655-2Q655 26 675 62Q730 163 834 260Q861 289 945 365Q896 325 843 294Q764 241 675 201Q644 187 620 187Q597 187 592 203Q584 227 631 292Z"  horiz-adv-x="877" vert-adv-y="1000"  />

      
      <glyph glyph-name="uni042F" unicode="&#x042F;" d="M1184 580Q1233 596 1273 570Q1270 564 1262 567Q1239 575 1217 573Q1150 566 1013 448Q905 357 814 253Q726 153 665 52Q650 26 633.50 0Q617-26 607-23Q596-20 596-5Q596 12 610 41Q631 85 708 190Q755 251 801 298Q1031 533 1184 580M684 308Q670 321 604 314Q567 310 546 331Q531 343 531 376Q531 410 550 444.50Q569 479 609 516Q657 562 715 588Q632 597 562 597Q319 597 163 471Q96 417 57.50 343.50Q19 270 20 203Q21 142 52.50 102.50Q84 63 148 59Q138 45 122 48Q68 58 37 96Q4 138 3 204Q1 355 149 486Q310 628 559 628Q649 628 759 604Q845 630 936 630Q959 630 981 628Q1025 624 1051 606Q1074 589 1074 567Q1074 560 1072 553Q1066 536 1033 536Q1009 536 904 556Q864 564 779 579Q665 537 586 436Q549 389 549 355Q549 347 552 341Q573 333 610 339Q687 351 725 328Q770 292 690 214Q395-83 146-83Q-7-83-7 41Q-7 122 61 207Q118 279 199 328Q304 393 458 415Q495 417 488 397Q453 397 368 368Q283 339 221 300Q10 167 10 39Q10-71 141-71Q246-71 379 14Q495 88 637 222Q707 294 684 308M1062 558Q1064 562 1064 567Q1064 584 1043 598.50Q1022 613 984 616Q913 622 817 592L908 569Q996 546 1032 546Q1056 546 1062 558Z"  horiz-adv-x="801" vert-adv-y="1000"  />

      
      <glyph glyph-name="uni042E" unicode="&#x042E;" d="M891 119Q906 235 851 321Q837 306 813 278Q636 72 448-19Q313-85 190-85Q26-85 26 42Q26 57 28 74Q38 145 93.50 217Q149 289 236 342Q259 356 299 375Q263 405 263 452Q263 562 407 622Q516 667 643 667Q845 667 1103 599Q1152 586 1179 574Q1202 564 1198 558Q1196 557 1190 560Q1181 563 1178 563Q1174 564 1163 563Q1067 555 861 332Q916 268 911 179Q917 206 956 268Q1029 383 1148 473Q1368 640 1598 640Q1683 640 1736 608Q1802 569 1807 489Q1811 426 1769.50 370Q1728 314 1664 304Q1608 212 1536 146Q1436 54 1312-7Q1185-69 1083-73Q1007-76 957-46Q893-9 890 74Q889 111 891 119M1148 573Q1137 577 1105 584Q873 633 643 633Q530 633 423 595Q278 544 278 451Q278 409 313 381Q464 445 610 438Q766 430 838 361Q1051 557 1148 573M826 350Q754 419 609 423Q533 425 430 390Q336 357 257 308Q64 187 45 71Q42 55 42 41Q42-70 184-70Q285-70 432 18Q583 109 743 269L769 295Q800 325 826 350M1782 490Q1771 624 1610 624Q1416 624 1184 441Q1060 343 988 250Q911 149 912 75Q913-69 1097-57Q1019-42 1019 43Q1019 89 1042 138Q1111 288 1257 398Q1342 462 1441 500Q1535 535 1609 535Q1625 535 1639 533Q1673 529 1696 506Q1719 483 1719 448Q1719 399 1670 314Q1722 331 1755 386Q1786 438 1782 490M1705 451Q1705 522 1617 522Q1478 522 1281 371Q1113 243 1057 130Q1033 82 1033 39Q1033-51 1137-51Q1320-15 1517 171Q1583 233 1633 299Q1705 394 1705 451Z"  horiz-adv-x="1627" vert-adv-y="1000"  />

      
      <glyph glyph-name="uni042D" unicode="&#x042D;" d="M626 150Q606 171 530 160Q475 145 461 148Q445 146 431.50 150Q418 154 420 164Q427 189 481 190Q589 189 642 162Q675 191 715 232Q846 365 871 462Q876 480 876 498Q876 560 827 592Q786 619 722 619Q648 622 527 567Q463 534 410 489Q275 375 275 299Q275 255 325 255Q383 255 467 338Q499 370 529 428Q542 454 541 454Q542 449 544 445Q543 435 540 424Q526 378 482 332Q399 245 326 245Q307 245 291 252Q260 266 260 307Q260 349 293.50 404Q327 459 381 503Q442 552 507 583Q614 635 718 640Q795 640 846 608Q908 571 908 498Q908 391 739 212Q461-84 178-78Q112-77 72-45Q22-6 28 69Q35 151 90 232Q116 264 154 255Q52 147 45 69Q39 4 81-31Q118-62 178-63Q387-68 626 150Z"  horiz-adv-x="758" vert-adv-y="1000"  />

      
      <glyph glyph-name="uni0432" unicode="&#x0432;" d="M294 278Q242 278 92 162Q44 125 11.50 85.50Q-21 46-21 25Q-21 6-1 6Q28 6 75 41Q107 66 186 139Q222 172 257 205Q307 253 307 269Q307 278 294 278M309 349Q349 357 403.50 388.50Q458 420 494 469Q527 510 505 520Q473 516 428 482Q337 413 211 293Q161 245 105 188Q249 294 304 294Q332 294 332 266Q332 215 242 127Q105-7-3-7Q-53-7-53 32Q-53 85 67 210Q254 404 388 494Q414 511 445 521Q472 529 508 528Q547 527 535 484Q523 441 472 404Q436 374 398 358.50Q360 343 296 333Q286 340 309 349Z"  horiz-adv-x="300" vert-adv-y="1000"  />

      
      <glyph glyph-name="uni0433" unicode="&#x0433;" d="M143 183Q229 235 229 269Q229 285 209 285Q171 285 127 242Q107 223 98 203Q72 161 61 163Q54 165 54 175Q54 185 60 195Q78 222 116 254Q143 277 175.50 290Q208 303 229 299Q261 293 261 256Q261 222 226.50 189Q192 156 117.50 113Q43 70 14 39Q-10 18 13 6Q49 6 110 47Q156 78 230 143Q237 150 242 145Q248 141 240 135Q198 93 135 47Q67-2 15-8Q-14-11-26.50-4.50Q-39 2-42 25Q-49 74 143 183Z"  horiz-adv-x="217" vert-adv-y="1000"  />

      
      </font>
</defs>
</svg>
