<?xml version="1.0" encoding="UTF-8"?>
<svg id="SVGDoc" width="108" height="35" xmlns="http://www.w3.org/2000/svg" version="1.1" xmlns:xlink="http://www.w3.org/1999/xlink" xmlns:avocode="https://avocode.com/" viewBox="0 0 108 35"><defs><clipPath id="ClipPath1016"><path d="M0.7071,18.19978l-0.70703,-0.69964l0.70703,-0.69964l0.00005,0.00005l16.97058,-16.79077l0.70703,0.69964l-16.97053,16.79071l16.97053,16.79042l-0.70703,0.69994l-16.97058,-16.79077z" fill="#ffffff"></path></clipPath><clipPath id="ClipPath1023"><path d="M24.67771,0.00978l0.70715,0.69964l-16.97053,16.79071l16.97053,16.79042l-0.70715,0.69994l-17.67766,-17.49036z" fill="#ffffff"></path></clipPath><clipPath id="ClipPath1030"><path d="M107.99999,17.50014v0v-0.9894v0h-106.99999v0v0.9894v0z" fill="#ffffff"></path></clipPath></defs><desc>Generated with Avocode.</desc><g><g><title>Shape 32</title><path d="M0.7071,18.19978l-0.70703,-0.69964l0.70703,-0.69964l0.00005,0.00005l16.97058,-16.79077l0.70703,0.69964l-16.97053,16.79071l16.97053,16.79042l-0.70703,0.69994l-16.97058,-16.79077z" fill-opacity="0" fill="#ffffff" stroke-dashoffset="0" stroke-dasharray="" stroke-linejoin="miter" stroke-linecap="butt" stroke-opacity="1" stroke="#bb9c66" stroke-miterlimit="20" stroke-width="6" clip-path="url(&quot;#ClipPath1016&quot;)"></path></g><g><title>Shape 32</title><path d="M24.67771,0.00978l0.70715,0.69964l-16.97053,16.79071l16.97053,16.79042l-0.70715,0.69994l-17.67766,-17.49036z" fill-opacity="0" fill="#ffffff" stroke-dashoffset="0" stroke-dasharray="" stroke-linejoin="miter" stroke-linecap="butt" stroke-opacity="1" stroke="#bb9c66" stroke-miterlimit="20" stroke-width="6" clip-path="url(&quot;#ClipPath1023&quot;)"></path></g><g><title>Shape 33</title><path d="M107.99999,17.50014v0v-0.9894v0h-106.99999v0v0.9894v0z" fill-opacity="0" fill="#ffffff" stroke-dashoffset="0" stroke-dasharray="" stroke-linejoin="miter" stroke-linecap="butt" stroke-opacity="1" stroke="#bb9c66" stroke-miterlimit="20" stroke-width="6" clip-path="url(&quot;#ClipPath1030&quot;)"></path></g></g></svg>