<svg xmlns="http://www.w3.org/2000/svg" width="228" height="155" viewBox="0 0 228 155"><defs><clipPath id="4rfya"><path fill="#bb9c66" d="M60.707 78.2L60 77.5l.707-.7 16.97-16.79.708.7-16.97 16.79 16.97 16.79-.707.7-16.97-16.79z"/></clipPath><clipPath id="4rfyb"><path fill="#bb9c66" d="M84.678 60.01l.707.7-16.97 16.79 16.97 16.79-.707.7L67 77.5z"/></clipPath><clipPath id="4rfyc"><path fill="#bb9c66" d="M168 77.5v-.99H61v.99z"/></clipPath></defs><g><g><path fill="none" stroke="#bb9c66" stroke-miterlimit="20" stroke-width="6" d="M60.707 78.2L60 77.5l.707-.7h0l16.97-16.79.708.7-16.97 16.79 16.97 16.79-.707.7-16.97-16.79z" clip-path="url(&quot;#4rfya&quot;)"/></g><g><path fill="none" stroke="#bb9c66" stroke-miterlimit="20" stroke-width="6" d="M84.678 60.01l.707.7-16.97 16.79 16.97 16.79-.707.7L67 77.5z" clip-path="url(&quot;#4rfyb&quot;)"/></g><g><path fill="none" stroke="#bb9c66" stroke-miterlimit="20" stroke-width="6" d="M168 77.5v0-.99 0H61v.99z" clip-path="url(&quot;#4rfyc&quot;)"/></g></g></svg>