<svg xmlns="http://www.w3.org/2000/svg" width="220" height="220" viewBox="0 0 220 220"><defs><linearGradient id="jitya" x1="110" x2="110" y1="160" y2="60" gradientUnits="userSpaceOnUse"><stop offset="0" stop-opacity=".96"/><stop offset=".5" stop-color="#d0d0d0" stop-opacity=".96"/><stop offset="1" stop-color="#9e9e9e" stop-opacity=".96"/></linearGradient><clipPath id="jityb"><path fill="#fff" d="M110 60c27.614 0 50 22.386 50 50s-22.386 50-50 50-50-22.386-50-50 22.386-50 50-50z"/></clipPath></defs><g><g><path fill="url(#jitya)" d="M110 60c27.614 0 50 22.386 50 50s-22.386 50-50 50-50-22.386-50-50 22.386-50 50-50z"/><path fill="none" stroke="#bb9c66" stroke-miterlimit="20" stroke-width="6" d="M110 60c27.614 0 50 22.386 50 50s-22.386 50-50 50-50-22.386-50-50 22.386-50 50-50z" clip-path="url(&quot;#jityb&quot;)"/></g></g></svg>